<svg id="Layer_1" data-name="Layer 1" xmlns="http://www.w3.org/2000/svg" viewBox="0 0 250.4346 123.9787">
  <g>
    <g>
      <path d="M132.8805,1.1993a2.87,2.87,0,0,0-1.0488-.7921,3.3546,3.3546,0,0,0-1.3885-.2844H118.4078a18.2092,18.2092,0,0,0-6.46,1.1625A19.0527,19.0527,0,0,0,99.89,15.8651L97.1141,31.6069h7.3716l1.2743-7.2294h16.7413l-1.2748,7.2294h1.62a7.168,7.168,0,0,0,6.7661-5.7522L133.4958,3.83a3.5188,3.5188,0,0,0-.0294-1.4383A2.93,2.93,0,0,0,132.8805,1.1993Zm-9.0794,15.806H107.06l.201-1.14a10.5834,10.5834,0,0,1,1.16-3.434,9.4973,9.4973,0,0,1,1.8023-2.3064,8.5947,8.5947,0,0,1,2.0872-1.4292,12.4731,12.4731,0,0,1,2.1338-.8063,10.5643,10.5643,0,0,1,1.7067-.3268c.4869-.0434.8066-.0674.9561-.0674h8.37Z" style="fill: #fff"/>
      <path d="M242.27,7.1974a8.6389,8.6389,0,0,0-1.22-3.4885,7.9773,7.9773,0,0,0-2.8506-2.6548A9.688,9.688,0,0,0,233.4,0L166.0208.0037,161.7729,24.096H148.4205a6.4923,6.4923,0,0,1-2.4873-.455,4.7555,4.7555,0,0,1-1.8386-1.3051,4.9623,4.9623,0,0,1-1.034-2.04,6.3434,6.3434,0,0,1-.04-2.6852L146.1249.0037h-7.63l-3.1046,17.6071a14.6608,14.6608,0,0,0-.1574,4.6368,11.445,11.445,0,0,0,1.1066,3.6236,8.9405,8.9405,0,0,0,2.0676,2.6709,12.8279,12.8279,0,0,0,2.6874,1.819,12.038,12.038,0,0,0,2.9707,1.0419,14.4127,14.4127,0,0,0,2.9511.3231h17.2551a4.1286,4.1286,0,0,0,1.5337-.294,4.77,4.77,0,0,0,2.3667-2.0244,4.5021,4.5021,0,0,0,.5628-1.5261l3.57-20.2476h14.177l-4.2484,24.0921h7.7178L194.2,7.634l37.8534.0056a2.7347,2.7347,0,0,1,2.1573.7548,2.7914,2.7914,0,0,1,.379,2.3559l-1.8107,10.2686A3.8528,3.8528,0,0,1,231.607,23.31a3.609,3.609,0,0,1-2.4544.7808H215.4477a2.6885,2.6885,0,0,1-2.1784-.7808,2.7371,2.7371,0,0,1-.39-2.2907s1.7985-10.1257,1.8612-10.3338H207.1c-.052.2211-1.8485,10.3338-1.8485,10.3338a9.91,9.91,0,0,0,.1864,4.9976,7.9574,7.9574,0,0,0,2.0827,3.3189,8.34,8.34,0,0,0,3.1512,1.8352,11.5136,11.5136,0,0,0,3.364.5594h13.7823a12.9917,12.9917,0,0,0,2.3343-.2471,14.0469,14.0469,0,0,0,2.5451-.7808,13.4341,13.4341,0,0,0,2.506-1.3667,11.5762,11.5762,0,0,0,2.271-2.03,12.56,12.56,0,0,0,1.8009-2.7589c.0025-.0132.0177-.026.02-.0394a12.999,12.999,0,0,0,1.11-3.4878l1.8219-10.3338A11.65,11.65,0,0,0,242.27,7.1974Z" style="fill: #fff"/>
    </g>
    <path d="M78.6791,59.1775H55.976a1.7932,1.7932,0,0,1-1.8535-2.3111l1.6363-8.9341a1.7577,1.7577,0,0,1,1.8544-1.5l189.391-.0048,1.3027-7.3407L55.4813,39.0413a13.0548,13.0548,0,0,0-7.58,1.71,8.4672,8.4672,0,0,0-4.0791,6.4914L41.9333,57.8089a6.0279,6.0279,0,0,0,1.916,5.8605c2.3339,1.9657,5.3831,1.86,6.7639,1.8808h22.723a1.84,1.84,0,0,1,1.855,2.4125l-1.636,8.6588c-.2273,1.1221-.6889,1.6431-2.2991,1.6431l-45.0115.0374-1.31,7.3377,48.1515-.0056c1.3715,0,4.8489.1932,7.6932-1.66a7.8359,7.8359,0,0,0,3.6534-5.8449L86.3041,67.71c.2775-1.5984.3479-4.4672-1.4093-6.3851C83.1852,59.4594,81.017,59.2176,78.6791,59.1775Z" style="fill: #ca2026"/>
    <g>
      <path d="M123.9564,56.4156a2.938,2.938,0,0,0-.5859-1.1919,2.8732,2.8732,0,0,0-1.0487-.7921,3.3558,3.3558,0,0,0-1.3886-.2844H108.8976a18.2121,18.2121,0,0,0-6.46,1.1625A19.0538,19.0538,0,0,0,90.38,69.89L87.6043,85.6313h7.3711L96.25,78.4019H112.991l-1.2747,7.2294h1.62a7.1686,7.1686,0,0,0,6.766-5.7522l3.8836-22.0252A3.5171,3.5171,0,0,0,123.9564,56.4156Zm-7.9885,5.1037-1.677,9.51H97.55l.2011-1.14a10.5771,10.5771,0,0,1,1.16-3.434,9.51,9.51,0,0,1,1.802-2.3064,8.6028,8.6028,0,0,1,2.0874-1.4293,12.4942,12.4942,0,0,1,2.1338-.8061,10.5859,10.5859,0,0,1,1.7065-.3269c.4873-.0435.8067-.0675.9566-.0675Z" style="fill: #fff"/>
      <path d="M166.8839,53.8027c-1.12,2.2521-19.103,20.3882-27.1724,27.3086a24.6082,24.6082,0,0,1-4.9376,3.1187,14.6218,14.6218,0,0,1-6.6556,1.4013,8.6785,8.6785,0,0,1-2.2943-.3415,3.0394,3.0394,0,0,1-1.09-.8066,2.9014,2.9014,0,0,1-.6092-1.2028,3.5346,3.5346,0,0,1-.0324-1.4824l4.9363-27.9953h7.63l-4.2068,23.858c1.8581,0,25.5864-23.858,25.5864-23.858Z" style="fill: #fff"/>
      <path d="M207.1618,53.8027c-1.12,2.2521-19.1029,20.3882-27.1723,27.3086a24.6082,24.6082,0,0,1-4.9376,3.1187,14.6218,14.6218,0,0,1-6.6556,1.4013,8.6785,8.6785,0,0,1-2.2943-.3415,3.0394,3.0394,0,0,1-1.09-.8066,2.9014,2.9014,0,0,1-.6092-1.2028,3.5346,3.5346,0,0,1-.0324-1.4824l4.9363-27.9953h7.63L172.73,77.6607c1.8581,0,25.5864-23.858,25.5864-23.858Z" style="fill: #fff"/>
      <path d="M217.0138,78.0021c-5.3126,0-7.3448,7.6292-7.3448,7.6292h19.7662a11.9178,11.9178,0,0,0,2.3329-.2492,13.7191,13.7191,0,0,0,2.5284-.7773,14.0078,14.0078,0,0,0,2.5156-1.3649,11.6782,11.6782,0,0,0,2.264-2.0246,12.9111,12.9111,0,0,0,1.8068-2.7582,13.0648,13.0648,0,0,0,1.1229-3.5364l3.7237-21.118H238.1l-2.1354,12.1107H220.12a2.3122,2.3122,0,0,1-2.5972-3.08l1.5923-9.03h-7.63l-1.5923,9.03a10.0959,10.0959,0,0,0,.1749,5.0027,7.8477,7.8477,0,0,0,2.0851,3.3165,8.3032,8.3032,0,0,0,3.1542,1.834,11.3079,11.3079,0,0,0,3.4088.5574h15.903l-.2429,1.3772a3.81,3.81,0,0,1-1.1667,2.289,3.552,3.552,0,0,1-2.4286.7924H217.0138" style="fill: #fff"/>
    </g>
    <text transform="translate(39.5334 106.6001)" style="font-size: 15.062016487121582px;fill: #fff;font-family: Barlow-Italic, Barlow;font-style: italic;letter-spacing: 0.024021777333689848em">Y<tspan x="8.6458" y="0" style="letter-spacing: 0.049988637852293856em">OUR SOURCE </tspan><tspan x="104.032" y="0" style="letter-spacing: 0.04600121732321983em">F</tspan><tspan x="113.0239" y="0" style="letter-spacing: 0.0500048468788348em">OR S</tspan><tspan x="145.5273" y="0" style="letter-spacing: 0.002026128317618914em">A</tspan><tspan x="154.4292" y="0" style="letter-spacing: 0.049988637852293856em">VINGS</tspan></text>
  </g>
</svg>
