<svg id="Layer_1" data-name="Layer 1" xmlns="http://www.w3.org/2000/svg" viewBox="0 0 222.4532 85.474">
  <g>
    <path id="fullLogo" d="M107.502,1.1943a2.8584,2.8584,0,0,0-1.0445-.7888,3.3411,3.3411,0,0,0-1.3828-.2832H93.0889A18.1346,18.1346,0,0,0,86.6553,1.28,18.974,18.974,0,0,0,74.6475,15.8l-2.7647,15.677h7.3413l1.2691-7.2H97.1655l-1.2695,7.2h1.6128a7.1386,7.1386,0,0,0,6.7383-5.7285l3.8676-21.9346a3.5008,3.5008,0,0,0-.0293-1.4324A2.9178,2.9178,0,0,0,107.502,1.1943ZM98.46,16.9353H81.7881l.2-1.1355a10.5378,10.5378,0,0,1,1.1553-3.42,9.4587,9.4587,0,0,1,1.7949-2.2969A8.5609,8.5609,0,0,1,87.0171,8.66a12.425,12.425,0,0,1,2.125-.803,10.5252,10.5252,0,0,1,1.7-.3255c.4849-.0432.8032-.0671.9521-.0671h8.336Z"/>
    <path id="fullLogo-2" data-name="fullLogo" d="M216.4407,7.1677a8.6054,8.6054,0,0,0-1.2148-3.4741A7.9454,7.9454,0,0,0,212.387,1.05,9.6484,9.6484,0,0,0,207.6077,0L140.5059.0037l-4.2305,23.9931H122.978a6.466,6.466,0,0,1-2.477-.4531,4.7361,4.7361,0,0,1-1.8311-1.3,4.9427,4.9427,0,0,1-1.03-2.0315,6.3193,6.3193,0,0,1-.04-2.6741L120.6919.0037h-7.5982L110.002,17.5383a14.5984,14.5984,0,0,0-.1568,4.6177,11.3963,11.3963,0,0,0,1.1021,3.6086,8.9022,8.9022,0,0,0,2.059,2.66,12.78,12.78,0,0,0,2.6763,1.8115,11.9916,11.9916,0,0,0,2.9585,1.0376,14.3547,14.3547,0,0,0,2.939.3218h17.1841a4.1117,4.1117,0,0,0,1.5273-.2928,4.75,4.75,0,0,0,2.3569-2.0161,4.48,4.48,0,0,0,.5606-1.52l3.5552-20.1643h14.1186l-4.2309,23.993h7.686l4.2309-23.993,37.6976.0057a2.7231,2.7231,0,0,1,2.1484.7517,2.78,2.78,0,0,1,.3775,2.3462L206.989,20.9324a3.8365,3.8365,0,0,1-1.167,2.2812,3.5939,3.5939,0,0,1-2.4443.7776H189.7293a2.6775,2.6775,0,0,1-2.1695-.7776,2.7253,2.7253,0,0,1-.3886-2.2812s1.791-10.084,1.8535-10.2913h-7.6084c-.0518.22-1.8408,10.2913-1.8408,10.2913a9.87,9.87,0,0,0,.1855,4.977,7.9251,7.9251,0,0,0,2.0742,3.3052,8.3043,8.3043,0,0,0,3.1382,1.8276,11.4664,11.4664,0,0,0,3.35.5572h13.7256a12.934,12.934,0,0,0,2.3247-.2461,13.9958,13.9958,0,0,0,2.5347-.7776,13.3818,13.3818,0,0,0,2.4956-1.3611,11.5271,11.5271,0,0,0,2.2617-2.022,12.5114,12.5114,0,0,0,1.7935-2.7475c.0024-.0132.0175-.0259.02-.0393a12.9462,12.9462,0,0,0,1.105-3.4734l1.8144-10.2913A11.6017,11.6017,0,0,0,216.4407,7.1677Z"/>
    <path id="fullLogo-3" data-name="fullLogo" d="M53.5237,58.9339h-22.61a1.7858,1.7858,0,0,1-1.8458-2.3016l1.63-8.8974a1.7505,1.7505,0,0,1,1.8468-1.4941l188.6112-.0047,1.2974-7.31-192.0318-.045a13.0012,13.0012,0,0,0-7.5483,1.7026,8.4319,8.4319,0,0,0-4.0623,6.4647l-1.8816,10.523a6.0034,6.0034,0,0,0,1.9081,5.8364c2.3243,1.9576,5.361,1.8522,6.7361,1.873H48.2028A1.8329,1.8329,0,0,1,50.05,67.6829L48.4209,76.306c-.2263,1.1175-.686,1.6364-2.29,1.6364L1.3051,77.98,0,85.2872l47.9533-.0057c1.3658,0,4.8289.1925,7.6615-1.6529a7.8044,7.8044,0,0,0,3.6384-5.8208l1.8641-10.3763c.2764-1.5918.3465-4.4488-1.4034-6.3588C58.0113,59.2146,55.852,58.9738,53.5237,58.9339Z"/>
    <path id="fullLogo-4" data-name="fullLogo" d="M98.6146,56.1833a2.9249,2.9249,0,0,0-.5835-1.187,2.8613,2.8613,0,0,0-1.0443-.7888,3.341,3.341,0,0,0-1.3829-.2832H83.6178a18.1375,18.1375,0,0,0-6.4337,1.1577,18.9757,18.9757,0,0,0-12.0077,14.52l-2.7643,15.677H69.753l1.2695-7.2H87.6944l-1.27,7.2h1.6132A7.1391,7.1391,0,0,0,94.7763,79.55l3.8676-21.9346A3.5026,3.5026,0,0,0,98.6146,56.1833ZM90.659,61.266l-1.67,9.4714H72.317l.2-1.1356a10.5315,10.5315,0,0,1,1.1555-3.42,9.4669,9.4669,0,0,1,1.7945-2.2969,8.569,8.569,0,0,1,2.0788-1.4234,12.4353,12.4353,0,0,1,2.1251-.8028,10.5369,10.5369,0,0,1,1.6994-.3256c.4853-.0433.8034-.0672.9527-.0672Z"/>
    <path id="fullLogo-5" data-name="fullLogo" d="M141.3653,53.5812c-1.1157,2.2428-19.0243,20.3043-27.06,27.1961a24.5031,24.5031,0,0,1-4.9173,3.1059,14.561,14.561,0,0,1-6.6282,1.3956,8.643,8.643,0,0,1-2.2849-.34,3.0288,3.0288,0,0,1-1.0859-.8033,2.89,2.89,0,0,1-.6068-1.1979,3.5209,3.5209,0,0,1-.0322-1.4763l4.916-27.88h7.5986l-4.1895,23.76c1.85,0,25.4811-23.76,25.4811-23.76Z"/>
    <path id="fullLogo-6" data-name="fullLogo" d="M181.4775,53.5812c-1.1158,2.2428-19.0243,20.3043-27.06,27.1961A24.5028,24.5028,0,0,1,149.5,83.8832a14.561,14.561,0,0,1-6.6282,1.3956,8.643,8.643,0,0,1-2.2849-.34,3.0292,3.0292,0,0,1-1.086-.8033,2.8894,2.8894,0,0,1-.6067-1.1979,3.5208,3.5208,0,0,1-.0323-1.4763l4.916-27.88h7.5987l-4.1895,23.76c1.85,0,25.481-23.76,25.481-23.76Z"/>
    <path id="fullLogo-7" data-name="fullLogo" d="M191.2889,77.681c-5.2908,0-7.3146,7.5978-7.3146,7.5978h19.6849a11.8615,11.8615,0,0,0,2.3232-.2483,13.6531,13.6531,0,0,0,2.518-.7741,13.9366,13.9366,0,0,0,2.5053-1.3592A11.63,11.63,0,0,0,213.26,80.881a12.86,12.86,0,0,0,1.7993-2.7469,13.0082,13.0082,0,0,0,1.1183-3.5218l3.7084-21.0311h-7.5986l-2.1267,12.0609H194.3822a2.3027,2.3027,0,0,1-2.5865-3.0679l1.5858-8.993h-7.5986l-1.5858,8.993a10.0537,10.0537,0,0,0,.1742,4.9821,7.8146,7.8146,0,0,0,2.0765,3.3028,8.2686,8.2686,0,0,0,3.1412,1.8265,11.2608,11.2608,0,0,0,3.3948.5551h15.8375l-.2419,1.3716a3.7948,3.7948,0,0,1-1.1619,2.28,3.5379,3.5379,0,0,1-2.4186.7891h-13.71"/>
  </g>
</svg>
