<svg id="Layer_1" data-name="Layer 1" xmlns="http://www.w3.org/2000/svg" viewBox="0 0 356.1209 47.208">
  <g>
    <path id="fullLogo" d="M38.3527,1.1943A2.8576,2.8576,0,0,0,37.3082.4055,3.3411,3.3411,0,0,0,35.9254.1223H23.94A18.1346,18.1346,0,0,0,17.506,1.28,18.974,18.974,0,0,0,5.4982,15.8L2.7335,31.4768h7.3413l1.2691-7.2H28.0162l-1.27,7.2H28.36a7.1386,7.1386,0,0,0,6.7383-5.7285L38.9655,3.8137a3.5043,3.5043,0,0,0-.0293-1.4324A2.9192,2.9192,0,0,0,38.3527,1.1943Zm-9.042,15.741H12.6388l.2-1.1355a10.54,10.54,0,0,1,1.1553-3.42,9.4587,9.4587,0,0,1,1.7949-2.2969A8.5609,8.5609,0,0,1,17.8678,8.66a12.425,12.425,0,0,1,2.125-.803,10.5273,10.5273,0,0,1,1.7-.3255c.4849-.0432.8032-.0671.9522-.0671h8.3359Z" style="fill: #fff"/>
    <path id="fullLogo-2" data-name="fullLogo" d="M147.799,7.1677a8.604,8.604,0,0,0-1.2149-3.4741A7.9437,7.9437,0,0,0,143.7452,1.05,9.6479,9.6479,0,0,0,138.966,0L71.3566.0037,67.1261,23.9968H53.8287a6.466,6.466,0,0,1-2.477-.4531,4.7369,4.7369,0,0,1-1.8311-1.3,4.9413,4.9413,0,0,1-1.03-2.0315,6.3176,6.3176,0,0,1-.04-2.6741L51.5426.0037H43.9445L40.8527,17.5383a14.5984,14.5984,0,0,0-.1568,4.6177,11.3963,11.3963,0,0,0,1.1021,3.6086,8.9009,8.9009,0,0,0,2.0591,2.66,12.777,12.777,0,0,0,2.6762,1.8115,11.9916,11.9916,0,0,0,2.9585,1.0376,14.3554,14.3554,0,0,0,2.939.3218H69.6149a4.1113,4.1113,0,0,0,1.5273-.2928,4.75,4.75,0,0,0,2.357-2.0161,4.4824,4.4824,0,0,0,.5605-1.52L77.6149,7.6025H91.7335l-4.2309,23.993h7.686L99.42,7.6025l38.205.0057a2.7232,2.7232,0,0,1,2.1485.7517,2.78,2.78,0,0,1,.3774,2.3462l-1.8032,10.2263a3.8371,3.8371,0,0,1-1.167,2.2812,3.594,3.594,0,0,1-2.4443.7776H121.0875a2.6774,2.6774,0,0,1-2.1694-.7776,2.7256,2.7256,0,0,1-.3887-2.2812s1.791-10.084,1.8535-10.2913h-7.6084c-.0517.22-1.8408,10.2913-1.8408,10.2913a9.8706,9.8706,0,0,0,.1856,4.977,7.9231,7.9231,0,0,0,2.0742,3.3052,8.3035,8.3035,0,0,0,3.1382,1.8276,11.4659,11.4659,0,0,0,3.35.5572h13.7256a12.9359,12.9359,0,0,0,2.3247-.2461,13.9924,13.9924,0,0,0,2.5346-.7776,13.3786,13.3786,0,0,0,2.4956-1.3611,11.5248,11.5248,0,0,0,2.2618-2.022,12.5111,12.5111,0,0,0,1.7934-2.7475c.0025-.0132.0176-.0259.02-.0393a12.9427,12.9427,0,0,0,1.105-3.4734l1.8145-10.2913A11.605,11.605,0,0,0,147.799,7.1677Z" style="fill: #fff"/>
    <path id="fullLogo-3" data-name="fullLogo" d="M187.1914,20.33H164.5819a1.8028,1.8028,0,0,1-1.8459-2.331l1.63-9.0106a1.7555,1.7555,0,0,1,1.8468-1.5131l188.6113-.0048L356.1209.0672,164.0892.0216a12.8662,12.8662,0,0,0-7.5484,1.7243,8.5625,8.5625,0,0,0-4.0623,6.547L150.597,18.95a6.13,6.13,0,0,0,1.908,5.9106c2.3243,1.9826,5.37,1.8969,6.7362,1.8969h22.6293a1.8512,1.8512,0,0,1,1.8474,2.4332l-1.6293,8.7329c-.2263,1.1317-.6859,1.6572-2.29,1.6572L1.3051,39.6183,0,47.0188l181.621-.0057c1.3659,0,4.829.1949,7.6615-1.6739a7.9255,7.9255,0,0,0,3.6384-5.895l1.8642-10.5083c.2763-1.6121.3465-4.5054-1.4035-6.44C191.679,20.6144,189.52,20.3706,187.1914,20.33Z" style="fill: #fff"/>
    <path id="fullLogo-4" data-name="fullLogo" d="M232.1559,17.9234a2.9263,2.9263,0,0,0-.5836-1.187,2.86,2.86,0,0,0-1.0443-.7888,3.341,3.341,0,0,0-1.3829-.2832H217.159a18.1383,18.1383,0,0,0-6.4337,1.1577,18.9757,18.9757,0,0,0-12.0077,14.52l-2.7642,15.677h7.3408l1.27-7.2h16.6719l-1.2695,7.2h1.6132a7.1391,7.1391,0,0,0,6.7382-5.7286l3.8677-21.9345A3.5061,3.5061,0,0,0,232.1559,17.9234ZM224.2,23.0061l-1.67,9.4714h-16.672l.2-1.1356a10.5315,10.5315,0,0,1,1.1555-3.42,9.47,9.47,0,0,1,1.7945-2.297,8.5714,8.5714,0,0,1,2.0788-1.4233,12.4415,12.4415,0,0,1,2.1251-.8028,10.5358,10.5358,0,0,1,1.7-.3256c.4852-.0433.8033-.0672.9526-.0672Z" style="fill: #fff"/>
    <path id="fullLogo-5" data-name="fullLogo" d="M274.9066,15.3213c-1.1158,2.2428-19.0243,20.3043-27.0605,27.1961a24.5031,24.5031,0,0,1-4.9173,3.1059,14.5607,14.5607,0,0,1-6.6282,1.3956,8.643,8.643,0,0,1-2.2849-.34,3.0288,3.0288,0,0,1-1.0859-.8033,2.8894,2.8894,0,0,1-.6067-1.1979,3.5208,3.5208,0,0,1-.0323-1.4763l4.916-27.88h7.5986l-4.1895,23.76c1.85,0,25.4811-23.76,25.4811-23.76Z" style="fill: #fff"/>
    <path id="fullLogo-6" data-name="fullLogo" d="M315.0187,15.3213c-1.1158,2.2428-19.0243,20.3043-27.06,27.1961a24.5031,24.5031,0,0,1-4.9173,3.1059,14.561,14.561,0,0,1-6.6282,1.3956,8.643,8.643,0,0,1-2.2849-.34,3.0292,3.0292,0,0,1-1.086-.8033,2.8894,2.8894,0,0,1-.6067-1.1979,3.5208,3.5208,0,0,1-.0323-1.4763l4.916-27.88h7.5987l-4.19,23.76c1.8505,0,25.4811-23.76,25.4811-23.76Z" style="fill: #fff"/>
    <path id="fullLogo-7" data-name="fullLogo" d="M324.83,39.4211c-5.2908,0-7.3147,7.5978-7.3147,7.5978H337.2a11.8691,11.8691,0,0,0,2.3232-.2483,13.6564,13.6564,0,0,0,2.5181-.7741,13.9392,13.9392,0,0,0,2.5052-1.3592,11.63,11.63,0,0,0,2.2547-2.0162,12.8636,12.8636,0,0,0,1.7994-2.7469,13.0152,13.0152,0,0,0,1.1183-3.5218l3.7083-21.0311H345.829l-2.1266,12.0608h-15.779a2.7,2.7,0,0,1-2.1991-.7891,2.7224,2.7224,0,0,1-.3873-2.2787l1.5857-8.993h-7.5986l-1.5857,8.993a10.0527,10.0527,0,0,0,.1741,4.9821,7.8146,7.8146,0,0,0,2.0765,3.3028,8.2686,8.2686,0,0,0,3.1412,1.8265,11.2608,11.2608,0,0,0,3.3948.5551h15.8375l-.2418,1.3716a3.7948,3.7948,0,0,1-1.162,2.28,3.5379,3.5379,0,0,1-2.4186.7891H324.83" style="fill: #fff"/>
  </g>
</svg>
