<svg id="Layer_1" data-name="Layer 1" xmlns="http://www.w3.org/2000/svg" viewBox="0 0 363.1104 88.1033">
  <g>
    <g>
      <path d="M38.5112,1.1993A2.87,2.87,0,0,0,37.4625.4072,3.3548,3.3548,0,0,0,36.0739.1228H24.0386a18.2088,18.2088,0,0,0-6.46,1.1625,19.0526,19.0526,0,0,0-12.0575,14.58L2.7448,31.6069h7.3717l1.2743-7.2294H28.1321l-1.2748,7.2294h1.6194a7.1681,7.1681,0,0,0,6.7662-5.7522L39.1265,3.83a3.5154,3.5154,0,0,0-.0294-1.4383A2.9273,2.9273,0,0,0,38.5112,1.1993Zm-9.0793,15.806H12.6911l.201-1.14a10.5811,10.5811,0,0,1,1.16-3.434,9.5,9.5,0,0,1,1.8024-2.3064,8.5947,8.5947,0,0,1,2.0872-1.4292,12.4731,12.4731,0,0,1,2.1338-.8063,10.5623,10.5623,0,0,1,1.7067-.3268c.4869-.0434.8065-.0674.9561-.0674h8.37Z" style="fill: #fff"/>
      <path d="M148.41,7.1974a8.6389,8.6389,0,0,0-1.22-3.4885A7.9773,7.9773,0,0,0,144.34,1.0541,9.6881,9.6881,0,0,0,139.54,0L71.6516.0037,67.4036,24.096H54.0513a6.4923,6.4923,0,0,1-2.4873-.455,4.7547,4.7547,0,0,1-1.8386-1.3051,4.9624,4.9624,0,0,1-1.0341-2.04,6.345,6.345,0,0,1-.04-2.6852L51.7557.0037h-7.63L41.0216,17.6108a14.6579,14.6579,0,0,0-.1574,4.6368,11.44,11.44,0,0,0,1.1066,3.6236,8.9389,8.9389,0,0,0,2.0676,2.6709,12.83,12.83,0,0,0,2.6873,1.819,12.0408,12.0408,0,0,0,2.9707,1.0419,14.4134,14.4134,0,0,0,2.9511.3231H69.9027a4.1285,4.1285,0,0,0,1.5336-.294,4.77,4.77,0,0,0,2.3667-2.0244,4.5,4.5,0,0,0,.5629-1.5261l3.57-20.2476H92.1128L87.8643,31.7261h7.7178L99.8306,7.634l38.363.0056a2.7347,2.7347,0,0,1,2.1573.7548,2.7914,2.7914,0,0,1,.379,2.3559l-1.8107,10.2686a3.8528,3.8528,0,0,1-1.1718,2.2907,3.609,3.609,0,0,1-2.4544.7808H121.5881A2.6885,2.6885,0,0,1,119.41,23.31a2.7371,2.7371,0,0,1-.39-2.2907s1.7985-10.1257,1.8612-10.3338h-7.64c-.052.2211-1.8485,10.3338-1.8485,10.3338a9.9115,9.9115,0,0,0,.1863,4.9976,7.9586,7.9586,0,0,0,2.0828,3.3189,8.34,8.34,0,0,0,3.1512,1.8352,11.5135,11.5135,0,0,0,3.3639.5594h13.7824a12.9917,12.9917,0,0,0,2.3343-.2471,14.0469,14.0469,0,0,0,2.5451-.7808,13.4341,13.4341,0,0,0,2.506-1.3667,11.5762,11.5762,0,0,0,2.271-2.03,12.5635,12.5635,0,0,0,1.8009-2.7589c.0025-.0132.0177-.026.02-.0394a12.999,12.999,0,0,0,1.11-3.4878l1.8219-10.3338A11.65,11.65,0,0,0,148.41,7.1974Z" style="fill: #fff"/>
    </g>
    <path d="M187.9653,20.4142h-22.703a1.81,1.81,0,0,1-1.8535-2.3406l1.6362-9.0478A1.7629,1.7629,0,0,1,166.9,7.5064l189.391-.0048L357.5932.0675,164.7675.0217a12.9191,12.9191,0,0,0-7.58,1.7314,8.5978,8.5978,0,0,0-4.0791,6.5741L151.22,19.0281a6.1558,6.1558,0,0,0,1.9159,5.9351c2.3339,1.9907,5.3925,1.9047,6.764,1.9047h22.7229a1.8589,1.8589,0,0,1,1.855,2.4433l-1.636,8.769c-.2272,1.1364-.6888,1.664-2.2991,1.664L1.3105,39.7821,0,47.2132l182.3718-.0058c1.3716,0,4.849.1957,7.6932-1.6808a7.9585,7.9585,0,0,0,3.6535-5.9193L195.59,29.0555c.2775-1.6187.348-4.524-1.4092-6.4663C192.4715,20.7,190.3033,20.4548,187.9653,20.4142Z" style="fill: #ca2026"/>
    <g>
      <path d="M233.1156,17.9975a2.9369,2.9369,0,0,0-.586-1.1919,2.872,2.872,0,0,0-1.0486-.7921,3.3558,3.3558,0,0,0-1.3886-.2844H218.0568a18.2144,18.2144,0,0,0-6.46,1.1625,19.0542,19.0542,0,0,0-12.0573,14.58l-2.7758,15.7419h7.3712l1.2748-7.2295H222.15l-1.2747,7.2295h1.62a7.1686,7.1686,0,0,0,6.766-5.7523l3.8836-22.0252A3.5172,3.5172,0,0,0,233.1156,17.9975Zm-7.9885,5.1037-1.677,9.5105H206.7093l.201-1.14a10.58,10.58,0,0,1,1.16-3.434,9.51,9.51,0,0,1,1.802-2.3064,8.6023,8.6023,0,0,1,2.0874-1.4292,12.4774,12.4774,0,0,1,2.1338-.8061,10.5764,10.5764,0,0,1,1.7065-.327c.4873-.0435.8067-.0675.9566-.0675Z" style="fill: #fff"/>
      <path d="M276.043,15.3846c-1.12,2.2521-19.1029,20.3883-27.1723,27.3086a24.6036,24.6036,0,0,1-4.9376,3.1187,14.62,14.62,0,0,1-6.6556,1.4014,8.6826,8.6826,0,0,1-2.2943-.3415,3.0408,3.0408,0,0,1-1.0905-.8067,2.9014,2.9014,0,0,1-.6092-1.2028,3.5346,3.5346,0,0,1-.0324-1.4824l4.9363-27.9953h7.63l-4.2068,23.858c1.8581,0,25.5864-23.858,25.5864-23.858Z" style="fill: #fff"/>
      <path d="M316.321,15.3846c-1.12,2.2521-19.1029,20.3883-27.1723,27.3086a24.6036,24.6036,0,0,1-4.9376,3.1187,14.62,14.62,0,0,1-6.6556,1.4014,8.684,8.684,0,0,1-2.2944-.3415,3.0413,3.0413,0,0,1-1.09-.8067,2.9014,2.9014,0,0,1-.6092-1.2028,3.5346,3.5346,0,0,1-.0324-1.4824l4.9363-27.9953h7.63l-4.2068,23.858c1.8581,0,25.5864-23.858,25.5864-23.858Z" style="fill: #fff"/>
      <path d="M326.173,39.584c-5.3126,0-7.3448,7.6293-7.3448,7.6293h19.7662a11.9183,11.9183,0,0,0,2.3329-.2493,13.7191,13.7191,0,0,0,2.5284-.7773,14.0015,14.0015,0,0,0,2.5156-1.3649,11.6809,11.6809,0,0,0,2.264-2.0245,12.9094,12.9094,0,0,0,1.8068-2.7583,13.0641,13.0641,0,0,0,1.1229-3.5363l3.7237-21.1181h-7.63l-2.1355,12.1107H329.279a2.7112,2.7112,0,0,1-2.2081-.7923,2.7336,2.7336,0,0,1-.389-2.2882l1.5923-9.03h-7.63l-1.5923,9.03a10.0959,10.0959,0,0,0,.1749,5.0027,7.8477,7.8477,0,0,0,2.0851,3.3165,8.3032,8.3032,0,0,0,3.1542,1.834,11.3079,11.3079,0,0,0,3.4088.5574h15.903l-.2429,1.3773a3.8108,3.8108,0,0,1-1.1667,2.289,3.5524,3.5524,0,0,1-2.4286.7923H326.173" style="fill: #fff"/>
    </g>
    <text transform="translate(57.1863 72.8335)" style="font-size: 18.07440757751465px;fill: #fff;font-family: Barlow-Italic, Barlow;font-style: italic;letter-spacing: 0.1540128711998856em">Y<tspan x="12.7244" y="0" style="letter-spacing: 0.1800013613058828em">OUR SOURCE </tspan><tspan x="153.0344" y="0" style="letter-spacing: 0.1760031320588063em">F</tspan><tspan x="166.1746" y="0" style="letter-spacing: 0.1800013613058828em">OR S</tspan><tspan x="214.5769" y="0" style="letter-spacing: 0.1320226103409649em">A</tspan><tspan x="227.6086" y="0" style="letter-spacing: 0.1800013613058828em">VINGS</tspan></text>
  </g>
</svg>
