<svg id="Layer_1" data-name="Layer 1" xmlns="http://www.w3.org/2000/svg" viewBox="0 0 223.3728 106.7358">
  <g>
    <path id="fullLogo" d="M107.9464,1.1993a2.87,2.87,0,0,0-1.0488-.7921,3.3546,3.3546,0,0,0-1.3885-.2844H93.4737a18.2092,18.2092,0,0,0-6.46,1.1625,19.0527,19.0527,0,0,0-12.0574,14.58L72.18,31.6069h7.3716l1.2743-7.2294H97.5672l-1.2748,7.2294h1.62a7.168,7.168,0,0,0,6.7661-5.7522L108.5617,3.83a3.5188,3.5188,0,0,0-.0294-1.4383A2.93,2.93,0,0,0,107.9464,1.1993ZM98.867,17.0053H82.1262l.201-1.14a10.5834,10.5834,0,0,1,1.16-3.434A9.4973,9.4973,0,0,1,85.29,10.1247a8.5966,8.5966,0,0,1,2.0872-1.4292,12.4731,12.4731,0,0,1,2.1338-.8063,10.5643,10.5643,0,0,1,1.7067-.3268c.4869-.0434.8066-.0674.9561-.0674h8.37Z" style="fill: #fff"/>
    <path id="fullLogo-2" data-name="fullLogo" d="M217.3355,7.1974a8.6389,8.6389,0,0,0-1.22-3.4885,7.9773,7.9773,0,0,0-2.8506-2.6548A9.688,9.688,0,0,0,208.466,0L141.0867.0037,136.8388,24.096H123.4864a6.4923,6.4923,0,0,1-2.4873-.455,4.7562,4.7562,0,0,1-1.8386-1.3051,4.9623,4.9623,0,0,1-1.034-2.04,6.3434,6.3434,0,0,1-.04-2.6852L121.1908.0037h-7.6295l-3.1046,17.6071a14.6608,14.6608,0,0,0-.1574,4.6368,11.445,11.445,0,0,0,1.1066,3.6236,8.9405,8.9405,0,0,0,2.0676,2.6709,12.8279,12.8279,0,0,0,2.6874,1.819,12.038,12.038,0,0,0,2.9707,1.0419,14.4127,14.4127,0,0,0,2.9511.3231h17.2551a4.1286,4.1286,0,0,0,1.5337-.294,4.77,4.77,0,0,0,2.3667-2.0244,4.5021,4.5021,0,0,0,.5628-1.5261l3.57-20.2476h14.177L157.3,31.7261h7.7178L169.2657,7.634l37.8534.0056a2.7347,2.7347,0,0,1,2.1573.7548,2.7914,2.7914,0,0,1,.379,2.3559l-1.8107,10.2686a3.8528,3.8528,0,0,1-1.1718,2.2907,3.609,3.609,0,0,1-2.4544.7808H190.5136a2.6885,2.6885,0,0,1-2.1784-.7808,2.7371,2.7371,0,0,1-.39-2.2907s1.7985-10.1257,1.8612-10.3338h-7.64c-.052.2211-1.8485,10.3338-1.8485,10.3338a9.91,9.91,0,0,0,.1864,4.9976,7.9574,7.9574,0,0,0,2.0827,3.3189,8.34,8.34,0,0,0,3.1512,1.8352,11.5136,11.5136,0,0,0,3.364.5594h13.7823a12.9917,12.9917,0,0,0,2.3343-.2471,14.0469,14.0469,0,0,0,2.5451-.7808,13.4341,13.4341,0,0,0,2.506-1.3667,11.5762,11.5762,0,0,0,2.271-2.03,12.56,12.56,0,0,0,1.8009-2.7589c.0025-.0132.0177-.026.02-.0394a12.999,12.999,0,0,0,1.11-3.4878l1.8219-10.3338A11.6471,11.6471,0,0,0,217.3355,7.1974Z" style="fill: #fff"/>
    <path id="fullLogo-3" data-name="fullLogo" d="M53.745,59.1775H31.0419a1.7932,1.7932,0,0,1-1.8535-2.3111l1.6363-8.9341a1.7577,1.7577,0,0,1,1.8544-1.5l189.391-.0048,1.3027-7.3407L30.5472,39.0413a13.0548,13.0548,0,0,0-7.58,1.71,8.4672,8.4672,0,0,0-4.0791,6.4914L16.9992,57.8089a6.0279,6.0279,0,0,0,1.916,5.8605c2.3339,1.9657,5.3831,1.86,6.7639,1.8808h22.723a1.84,1.84,0,0,1,1.855,2.4125l-1.636,8.6588c-.2273,1.1221-.6888,1.6431-2.2991,1.6431L1.3105,78.302,0,85.64l48.1515-.0056c1.3715,0,4.849.1932,7.6932-1.66a7.8359,7.8359,0,0,0,3.6534-5.8449L61.37,67.71c.2775-1.5984.3479-4.4672-1.4093-6.3851C58.2511,59.4594,56.0829,59.2176,53.745,59.1775Z" style="fill: #fff"/>
    <path id="fullLogo-4" data-name="fullLogo" d="M99.0223,56.4156a2.938,2.938,0,0,0-.5859-1.1919,2.8732,2.8732,0,0,0-1.0487-.7921,3.3558,3.3558,0,0,0-1.3886-.2844H83.9635a18.2121,18.2121,0,0,0-6.46,1.1625A19.0538,19.0538,0,0,0,65.4459,69.89L62.67,85.6313h7.3711l1.2748-7.2294H88.0569l-1.2747,7.2294h1.62a7.1686,7.1686,0,0,0,6.766-5.7522l3.8836-22.0252A3.5171,3.5171,0,0,0,99.0223,56.4156Zm-7.9885,5.1037-1.677,9.51H72.616l.2011-1.14a10.5771,10.5771,0,0,1,1.16-3.434,9.51,9.51,0,0,1,1.802-2.3064A8.6028,8.6028,0,0,1,77.8667,62.72a12.4973,12.4973,0,0,1,2.1338-.8061,10.5859,10.5859,0,0,1,1.7065-.3269c.4873-.0435.8067-.0675.9566-.0675Z" style="fill: #fff"/>
    <path id="fullLogo-5" data-name="fullLogo" d="M141.95,53.8027c-1.12,2.2521-19.103,20.3882-27.1724,27.3086A24.6082,24.6082,0,0,1,109.84,84.23a14.6218,14.6218,0,0,1-6.6556,1.4013A8.6785,8.6785,0,0,1,100.89,85.29a3.0394,3.0394,0,0,1-1.09-.8066A2.9014,2.9014,0,0,1,99.19,83.28a3.5363,3.5363,0,0,1-.0324-1.4824l4.9363-27.9953h7.63l-4.2068,23.858c1.8581,0,25.5864-23.858,25.5864-23.858Z" style="fill: #fff"/>
    <path id="fullLogo-6" data-name="fullLogo" d="M182.2277,53.8027c-1.12,2.2521-19.1029,20.3882-27.1723,27.3086a24.6082,24.6082,0,0,1-4.9376,3.1187,14.6218,14.6218,0,0,1-6.6556,1.4013,8.6785,8.6785,0,0,1-2.2943-.3415,3.0394,3.0394,0,0,1-1.09-.8066,2.9014,2.9014,0,0,1-.6092-1.2028,3.5346,3.5346,0,0,1-.0324-1.4824l4.9363-27.9953h7.63l-4.2068,23.858c1.8581,0,25.5864-23.858,25.5864-23.858Z" style="fill: #fff"/>
    <path id="fullLogo-7" data-name="fullLogo" d="M192.08,78.0021c-5.3126,0-7.3448,7.6292-7.3448,7.6292h19.7662a11.9178,11.9178,0,0,0,2.3329-.2492,13.7191,13.7191,0,0,0,2.5284-.7773A14.0078,14.0078,0,0,0,211.878,83.24a11.6782,11.6782,0,0,0,2.264-2.0246,12.9111,12.9111,0,0,0,1.8068-2.7582,13.0648,13.0648,0,0,0,1.1229-3.5364l3.7237-21.118h-7.63L211.03,65.9134H195.1858a2.3122,2.3122,0,0,1-2.5972-3.08l1.5923-9.03h-7.63l-1.5923,9.03a10.0959,10.0959,0,0,0,.1749,5.0027,7.8477,7.8477,0,0,0,2.0851,3.3165,8.3032,8.3032,0,0,0,3.1542,1.834,11.3079,11.3079,0,0,0,3.4088.5574h15.903l-.2429,1.3772a3.81,3.81,0,0,1-1.1667,2.289,3.552,3.552,0,0,1-2.4286.7924H192.08" style="fill: #fff"/>
    <path id="fullLogo-8" data-name="fullLogo" d="M17.958,106.4346l.5422-4.4585a.1184.1184,0,0,0-.0151-.0752L16.15,96.2373a.167.167,0,0,1-.0149-.0752q0-.1054.1355-.1055h.7983c.09,0,.14.0352.1507.1055l1.8977,4.5938a.0751.0751,0,0,0,.09,0l3.0276-4.5938a.1346.1346,0,0,1,.0752-.0752.2682.2682,0,0,1,.1206-.03h.7832q.09,0,.113.0528c.0149.0351.0022.0781-.0378.1279l-3.7354,5.6636a.1188.1188,0,0,0-.0149.0752l-.5573,4.4585a.1453.1453,0,0,1-.0452.1054.1644.1644,0,0,1-.1206.045h-.738Q17.9278,106.585,17.958,106.4346Z" style="fill: #fff"/>
    <path id="fullLogo-9" data-name="fullLogo" d="M25.218,105.9224a2.8508,2.8508,0,0,1-.8284-2.1538,3.5568,3.5568,0,0,1,.03-.5425l.467-3.7954a4.0432,4.0432,0,0,1,.655-1.83A3.6853,3.6853,0,0,1,26.92,96.373a4.0025,4.0025,0,0,1,1.8677-.437,3.1456,3.1456,0,0,1,2.2668.7984,2.8381,2.8381,0,0,1,.836,2.1538,3.5842,3.5842,0,0,1-.03.5425l-.467,3.7954a4.1792,4.1792,0,0,1-.67,1.83,3.682,3.682,0,0,1-1.3781,1.2275,4.03,4.03,0,0,1-1.8829.437A3.0974,3.0974,0,0,1,25.218,105.9224Zm4.2324-.8135a2.8583,2.8583,0,0,0,.8887-1.8374l.4819-3.856q.03-.2709.03-.3916A2.0028,2.0028,0,0,0,28.6824,96.87a2.6461,2.6461,0,0,0-1.86.7,2.8727,2.8727,0,0,0-.896,1.8452l-.4822,3.856q-.03.2709-.03.3916a2.09,2.09,0,0,0,.5874,1.5586,2.1523,2.1523,0,0,0,1.5815.58A2.655,2.655,0,0,0,29.45,105.1089Z" style="fill: #fff"/>
    <path id="fullLogo-10" data-name="fullLogo" d="M35.2566,105.9448a2.7076,2.7076,0,0,1-.836-2.0859q0-.15.03-.5122l.8735-7.1392a.1441.1441,0,0,1,.0452-.1054.1626.1626,0,0,1,.1206-.0455h.738q.1354,0,.1355.1509l-.8887,7.1695a3.012,3.012,0,0,0-.0149.3461,1.9822,1.9822,0,0,0,.5874,1.4986,2.1844,2.1844,0,0,0,1.5816.5649,2.6571,2.6571,0,0,0,2.7261-2.41l.8886-7.1695a.1445.1445,0,0,1,.0452-.1054.1627.1627,0,0,1,.1206-.0455h.738q.15,0,.12.1509l-.8735,7.1392a3.8625,3.8625,0,0,1-.6477,1.77,3.6075,3.6075,0,0,1-1.3631,1.1821,4.1022,4.1022,0,0,1-1.8752.4219A3.1769,3.1769,0,0,1,35.2566,105.9448Z" style="fill: #fff"/>
    <path id="fullLogo-11" data-name="fullLogo" d="M50.19,106.4946l-1.5815-4.6694a.04.04,0,0,0-.0452-.0449H46.0786q-.0455,0-.0754.06L45.446,106.45a.16.16,0,0,1-.1657.15h-.7532a.1206.1206,0,0,1-.0979-.0454.1114.1114,0,0,1-.0225-.105l1.2652-10.2422a.1548.1548,0,0,1,.1506-.1509h3.7956a2.3081,2.3081,0,0,1,2.47,2.4551c0,.1006-.01.251-.03.4522a3.1952,3.1952,0,0,1-.7681,1.792,2.928,2.928,0,0,1-1.6267.9492c-.04.02-.05.0449-.03.0752l1.6119,4.6391.0149.06c0,.0806-.0452.1206-.1355.1206h-.7681Q50.2053,106.6,50.19,106.4946Zm-3.6-9.4438-.4668,3.8105a.0533.0533,0,0,0,.06.0606H48.895a2.0413,2.0413,0,0,0,1.5439-.64,2.2724,2.2724,0,0,0,.61-1.6342,1.6292,1.6292,0,0,0-.4519-1.2051,1.6486,1.6486,0,0,0-1.22-.4517H46.666Q46.6206,96.9907,46.5906,97.0508Z" style="fill: #fff"/>
    <path id="fullLogo-12" data-name="fullLogo" d="M58.3161,106.0654a2.1178,2.1178,0,0,1-.8662-1.7846,3.2006,3.2006,0,0,1,.03-.377l.06-.4668a.16.16,0,0,1,.1655-.15h.708c.09,0,.1355.05.1355.15l-.06.4068a1.2561,1.2561,0,0,0-.0148.226,1.4758,1.4758,0,0,0,.64,1.2427,2.9477,2.9477,0,0,0,1.7847.4741,2.86,2.86,0,0,0,1.7624-.4892,1.8731,1.8731,0,0,0,.7529-1.3033,1.4159,1.4159,0,0,0-.5195-1.3178,9.1739,9.1739,0,0,0-1.8752-1.0616,14.7859,14.7859,0,0,1-1.5064-.7158,2.67,2.67,0,0,1-.8735-.7754,1.9261,1.9261,0,0,1-.3313-1.145c0-.07.01-.1958.03-.3764a2.7367,2.7367,0,0,1,1.092-1.9654,3.9676,3.9676,0,0,1,2.4327-.7007,3.6276,3.6276,0,0,1,2.3269.67,2.1877,2.1877,0,0,1,.8359,1.8q0,.1209-.03.3917l-.03.3315a.16.16,0,0,1-.1657.15h-.7381a.1206.1206,0,0,1-.0979-.0449.1127.1127,0,0,1-.0224-.1055l.03-.271a1.6769,1.6769,0,0,0-.58-1.5063,2.6314,2.6314,0,0,0-1.6946-.482,2.7542,2.7542,0,0,0-1.6343.4365,1.75,1.75,0,0,0-.7153,1.2657,1.4938,1.4938,0,0,0-.0152.2407,1.2045,1.2045,0,0,0,.2486.7681,2.2121,2.2121,0,0,0,.7156.5649q.4665.2482,1.3855.625a11.4571,11.4571,0,0,1,1.5063.7681,3.2519,3.2519,0,0,1,.9263.8588,1.9984,1.9984,0,0,1,.354,1.19,3.1485,3.1485,0,0,1-.0152.3613,2.8523,2.8523,0,0,1-1.1447,2.0181,4.2,4.2,0,0,1-2.6057.7534A3.876,3.876,0,0,1,58.3161,106.0654Z" style="fill: #fff"/>
    <path id="fullLogo-13" data-name="fullLogo" d="M67.9482,105.9224a2.8507,2.8507,0,0,1-.8283-2.1538,3.56,3.56,0,0,1,.03-.5425l.467-3.7954a4.0422,4.0422,0,0,1,.6551-1.83A3.6843,3.6843,0,0,1,69.65,96.373a4.0025,4.0025,0,0,1,1.8677-.437,3.1459,3.1459,0,0,1,2.2669.7984,2.8384,2.8384,0,0,1,.8359,2.1538,3.6,3.6,0,0,1-.03.5425l-.4671,3.7954a4.18,4.18,0,0,1-.67,1.83,3.6831,3.6831,0,0,1-1.3782,1.2275,4.03,4.03,0,0,1-1.8828.437A3.0975,3.0975,0,0,1,67.9482,105.9224Zm4.2324-.8135a2.8583,2.8583,0,0,0,.8887-1.8374l.482-3.856q.03-.2709.03-.3916A2.0028,2.0028,0,0,0,71.4126,96.87a2.6461,2.6461,0,0,0-1.86.7,2.8736,2.8736,0,0,0-.896,1.8452l-.4821,3.856q-.03.2709-.03.3916a2.09,2.09,0,0,0,.5874,1.5586,2.1524,2.1524,0,0,0,1.5816.58A2.6548,2.6548,0,0,0,72.1806,105.1089Z" style="fill: #fff"/>
    <path id="fullLogo-14" data-name="fullLogo" d="M77.987,105.9448a2.7079,2.7079,0,0,1-.8359-2.0859q0-.15.03-.5122l.8736-7.1392a.1444.1444,0,0,1,.0451-.1054.1629.1629,0,0,1,.1206-.0455h.7381q.1355,0,.1355.1509l-.8887,7.1695a3.012,3.012,0,0,0-.0149.3461,1.9822,1.9822,0,0,0,.5874,1.4986,2.1844,2.1844,0,0,0,1.5816.5649,2.657,2.657,0,0,0,2.726-2.41l.8887-7.1695a.1441.1441,0,0,1,.0452-.1054.1626.1626,0,0,1,.1206-.0455h.738q.15,0,.12.1509l-.8736,7.1392a3.86,3.86,0,0,1-.6477,1.77,3.6065,3.6065,0,0,1-1.363,1.1821,4.1028,4.1028,0,0,1-1.8752.4219A3.1773,3.1773,0,0,1,77.987,105.9448Z" style="fill: #fff"/>
    <path id="fullLogo-15" data-name="fullLogo" d="M92.9209,106.4946l-1.5816-4.6694a.04.04,0,0,0-.0451-.0449H88.8091q-.0454,0-.0755.06l-.5571,4.6094a.16.16,0,0,1-.1658.15h-.7531a.1206.1206,0,0,1-.0979-.0454.1112.1112,0,0,1-.0225-.105l1.2651-10.2422a.155.155,0,0,1,.1507-.1509h3.7956a2.3081,2.3081,0,0,1,2.47,2.4551c0,.1006-.01.251-.03.4522a3.1965,3.1965,0,0,1-.7681,1.792,2.928,2.928,0,0,1-1.6267.9492c-.04.02-.05.0449-.03.0752l1.6118,4.6391.0149.06c0,.0806-.0451.1206-.1355.1206h-.768Q92.9358,106.6,92.9209,106.4946Zm-3.6-9.4438-.4668,3.8105a.0534.0534,0,0,0,.06.0606h2.711a2.0415,2.0415,0,0,0,1.5439-.64,2.2724,2.2724,0,0,0,.61-1.6342,1.6288,1.6288,0,0,0-.4519-1.2051,1.6482,1.6482,0,0,0-1.22-.4517H89.3965Q89.3511,96.9907,89.321,97.0508Z" style="fill: #fff"/>
    <path id="fullLogo-16" data-name="fullLogo" d="M97.6877,105.9673a2.69,2.69,0,0,1-.8208-2.0635,3.306,3.306,0,0,1,.03-.5117l.497-4.1421a3.7752,3.7752,0,0,1,.6477-1.7324,3.5828,3.5828,0,0,1,1.3557-1.167,4.0461,4.0461,0,0,1,1.8374-.4146,3.2111,3.2111,0,0,1,2.2444.7535,2.5945,2.5945,0,0,1,.8284,2.018c0,.1006-.01.2613-.03.482q-.03.1662-.1658.166l-.7532.0449a.12.12,0,0,1-.1355-.1353l.0152-.0454a3.0827,3.0827,0,0,0,.0149-.3467,1.9316,1.9316,0,0,0-.5647-1.4609,2.1592,2.1592,0,0,0-1.5591-.542,2.6722,2.6722,0,0,0-1.815.6475,2.6124,2.6124,0,0,0-.8811,1.7021l-.5119,4.2173a2.937,2.937,0,0,0-.0152.3467,1.9174,1.9174,0,0,0,.5723,1.4609,2.1639,2.1639,0,0,0,1.5515.542,2.6654,2.6654,0,0,0,1.8225-.6474,2.5653,2.5653,0,0,0,.8584-1.7022l.0152-.03c0-.09.05-.1352.1506-.1352l.738.0449q.1656,0,.1355.1357a3.77,3.77,0,0,1-.64,1.7247,3.49,3.49,0,0,1-1.3479,1.1523,4.15,4.15,0,0,1-1.8528.4067A3.1214,3.1214,0,0,1,97.6877,105.9673Z" style="fill: #fff"/>
    <path id="fullLogo-17" data-name="fullLogo" d="M114.0979,96.9907h-5.3772q-.0454,0-.0755.06l-.4519,3.72a.0533.0533,0,0,0,.06.0605h3.7657c.1,0,.14.05.12.15l-.0752.6328a.16.16,0,0,1-.1657.15h-3.7654a.0534.0534,0,0,0-.06.06l-.4671,3.7808c0,.0405.0152.06.0452.06h5.3772c.09,0,.1357.0508.1357.1509l-.0905.6328a.1426.1426,0,0,1-.0452.105.162.162,0,0,1-.12.0454h-6.3261a.1206.1206,0,0,1-.0979-.0454.1114.1114,0,0,1-.0225-.105l1.2651-10.2422a.155.155,0,0,1,.1507-.1509h6.3259a.1382.1382,0,0,1,.113.0455.1144.1144,0,0,1,.0228.1054l-.0755.6323A.16.16,0,0,1,114.0979,96.9907Z" style="fill: #fff"/>
    <path id="fullLogo-18" data-name="fullLogo" d="M127.352,96.9907H121.99q-.0455,0-.0755.06l-.4519,3.72a.0533.0533,0,0,0,.06.0605h3.75q.1506,0,.1206.15l-.0754.6328a.16.16,0,0,1-.1655.15h-3.75a.0534.0534,0,0,0-.06.06L120.77,106.45a.16.16,0,0,1-.1658.15h-.7531a.1206.1206,0,0,1-.0979-.0454.1112.1112,0,0,1-.0225-.105l1.2651-10.2422a.155.155,0,0,1,.1507-.1509h6.311a.1381.1381,0,0,1,.1128.0455.1136.1136,0,0,1,.0227.1054l-.0754.6323A.16.16,0,0,1,127.352,96.9907Z" style="fill: #fff"/>
    <path id="fullLogo-19" data-name="fullLogo" d="M129.5962,105.9224a2.8508,2.8508,0,0,1-.8284-2.1538,3.5728,3.5728,0,0,1,.03-.5425l.4671-3.7954a4.0432,4.0432,0,0,1,.655-1.83,3.6853,3.6853,0,0,1,1.3782-1.2276,4.0022,4.0022,0,0,1,1.8677-.437,3.1456,3.1456,0,0,1,2.2668.7984,2.838,2.838,0,0,1,.8359,2.1538,3.6,3.6,0,0,1-.03.5425l-.467,3.7954a4.1816,4.1816,0,0,1-.67,1.83,3.6816,3.6816,0,0,1-1.3782,1.2275,4.03,4.03,0,0,1-1.8828.437A3.0974,3.0974,0,0,1,129.5962,105.9224Zm4.2324-.8135a2.8588,2.8588,0,0,0,.8887-1.8374l.4819-3.856q.03-.2709.03-.3916a2.0026,2.0026,0,0,0-2.1687-2.1538,2.646,2.646,0,0,0-1.86.7,2.8727,2.8727,0,0,0-.896,1.8452l-.4822,3.856c-.02.1806-.03.311-.03.3916a2.09,2.09,0,0,0,.5874,1.5586,2.1523,2.1523,0,0,0,1.5815.58A2.6552,2.6552,0,0,0,133.8286,105.1089Z" style="fill: #fff"/>
    <path id="fullLogo-20" data-name="fullLogo" d="M144.3418,106.4946l-1.5816-4.6694a.04.04,0,0,0-.0451-.0449H140.23q-.0454,0-.0755.06l-.5571,4.6094a.16.16,0,0,1-.1658.15h-.7531a.1206.1206,0,0,1-.0979-.0454.1112.1112,0,0,1-.0225-.105l1.2651-10.2422a.155.155,0,0,1,.1507-.1509H143.77a2.3081,2.3081,0,0,1,2.47,2.4551c0,.1006-.01.251-.03.4522a3.1965,3.1965,0,0,1-.7681,1.792,2.928,2.928,0,0,1-1.6267.9492c-.04.02-.05.0449-.03.0752l1.6118,4.6391.0149.06c0,.0806-.0451.1206-.1355.1206h-.768Q144.3567,106.6,144.3418,106.4946Zm-3.6-9.4438-.4668,3.8105a.0534.0534,0,0,0,.06.0606h2.711a2.0415,2.0415,0,0,0,1.5439-.64,2.2724,2.2724,0,0,0,.61-1.6342,1.6288,1.6288,0,0,0-.4519-1.2051,1.6483,1.6483,0,0,0-1.22-.4517h-2.7111Q140.772,96.9907,140.7419,97.0508Z" style="fill: #fff"/>
    <path id="fullLogo-21" data-name="fullLogo" d="M152.4675,106.0654a2.1178,2.1178,0,0,1-.8662-1.7846,3.2006,3.2006,0,0,1,.03-.377l.06-.4668a.16.16,0,0,1,.1655-.15h.708c.09,0,.1355.05.1355.15l-.06.4068a1.2541,1.2541,0,0,0-.0149.226,1.4759,1.4759,0,0,0,.64,1.2427,2.9474,2.9474,0,0,0,1.7846.4741,2.86,2.86,0,0,0,1.7625-.4892,1.8731,1.8731,0,0,0,.7529-1.3033,1.4171,1.4171,0,0,0-.5195-1.3178,9.1725,9.1725,0,0,0-1.8753-1.0616,14.793,14.793,0,0,1-1.5063-.7158,2.67,2.67,0,0,1-.8736-.7754,1.9268,1.9268,0,0,1-.3313-1.145c0-.07.01-.1958.03-.3764a2.7364,2.7364,0,0,1,1.092-1.9654,3.9675,3.9675,0,0,1,2.4326-.7007,3.6272,3.6272,0,0,1,2.3269.67,2.1875,2.1875,0,0,1,.836,1.8q0,.1209-.03.3917l-.03.3315a.16.16,0,0,1-.1658.15h-.738a.1205.1205,0,0,1-.0979-.0449.113.113,0,0,1-.0225-.1055l.03-.271a1.576,1.576,0,0,0,.0151-.2412,1.55,1.55,0,0,0-.595-1.2651,2.6309,2.6309,0,0,0-1.6945-.482,2.754,2.754,0,0,0-1.6343.4365,1.75,1.75,0,0,0-.7153,1.2657,1.4938,1.4938,0,0,0-.0152.2407,1.2045,1.2045,0,0,0,.2486.7681,2.2117,2.2117,0,0,0,.7155.5649q.4666.2482,1.3855.625a11.4591,11.4591,0,0,1,1.5064.7681,3.2515,3.2515,0,0,1,.9262.8588,1.9978,1.9978,0,0,1,.354,1.19,3.1771,3.1771,0,0,1-.0151.3613,2.8524,2.8524,0,0,1-1.1448,2.0181,4.2,4.2,0,0,1-2.6057.7534A3.8759,3.8759,0,0,1,152.4675,106.0654Z" style="fill: #fff"/>
    <path id="fullLogo-22" data-name="fullLogo" d="M167.1152,106.48l-.3616-1.8975a.04.04,0,0,0-.0451-.0454h-4.3679a.0592.0592,0,0,0-.06.0454l-.8284,1.8975a.1752.1752,0,0,1-.1807.1206h-.7983q-.1659,0-.09-.1655l4.4885-10.2574a.1335.1335,0,0,1,.0752-.09.2441.2441,0,0,1,.1054-.03h.9942a.1874.1874,0,0,1,.1055.03.1463.1463,0,0,1,.06.09L168.2,106.4346v.03a.12.12,0,0,1-.1355.1357h-.7983A.1421.1421,0,0,1,167.1152,106.48Zm-4.4282-2.8389a.0509.0509,0,0,0,.0452.0225h3.78a.0644.0644,0,0,0,.0527-.03c.0152-.02.0176-.0351.0076-.0449l-1.1448-6.1455c-.01-.02-.0225-.03-.0376-.03a.0831.0831,0,0,0-.0527.03l-2.6509,6.1455A.05.05,0,0,0,162.687,103.6406Z" style="fill: #fff"/>
    <path id="fullLogo-23" data-name="fullLogo" d="M172.5227,106.57a.1453.1453,0,0,1-.06-.09l-1.928-10.2573v-.03a.12.12,0,0,1,.1358-.1358h.798a.1636.1636,0,0,1,.0906.03.146.146,0,0,1,.06.09l1.5815,8.8262c0,.02.0125.03.0376.03a.0535.0535,0,0,0,.0528-.03l3.7356-8.8262a.2247.2247,0,0,1,.1958-.1206h.768q.1506,0,.1055.1656L173.6223,106.48a.2247.2247,0,0,1-.1958.1206h-.7983A.1822.1822,0,0,1,172.5227,106.57Z" style="fill: #fff"/>
    <path id="fullLogo-24" data-name="fullLogo" d="M179.5036,106.5547a.1114.1114,0,0,1-.0224-.105l1.2651-10.2422a.155.155,0,0,1,.1507-.1509h.7531q.15,0,.12.1509l-1.25,10.2422a.16.16,0,0,1-.1658.15h-.7532A.1208.1208,0,0,1,179.5036,106.5547Z" style="fill: #fff"/>
    <path id="fullLogo-25" data-name="fullLogo" d="M191.5307,96.0566h.7381a.1386.1386,0,0,1,.113.0455.1135.1135,0,0,1,.0225.1054L191.1391,106.45a.1437.1437,0,0,1-.0451.105.1627.1627,0,0,1-.1206.0454h-.7229a.209.209,0,0,1-.1658-.1055l-3.946-8.3593c-.01-.03-.0254-.0425-.0455-.0376s-.03.0224-.03.0527l-1.009,8.2993a.16.16,0,0,1-.1658.15h-.7532a.1208.1208,0,0,1-.0979-.0454.1114.1114,0,0,1-.0224-.105L185.28,96.2075a.155.155,0,0,1,.1506-.1509h.7381a.2094.2094,0,0,1,.1658.1055l3.946,8.3594c.01.03.0251.043.0452.0376s.03-.0225.03-.0528l1.0091-8.2988A.16.16,0,0,1,191.5307,96.0566Z" style="fill: #fff"/>
    <path id="fullLogo-26" data-name="fullLogo" d="M195.4922,105.9448a2.6823,2.6823,0,0,1-.8286-2.0556q0-.1509.03-.4825l.512-4.1567a3.773,3.773,0,0,1,.6477-1.7324,3.5813,3.5813,0,0,1,1.3557-1.167,4.0461,4.0461,0,0,1,1.8374-.4146,3.1691,3.1691,0,0,1,2.2293.7608,2.5822,2.5822,0,0,1,.8283,1.9956c0,.09-.01.2363-.03.437l-.0151.1958a.16.16,0,0,1-.1658.15H201.14c-.1006,0-.1409-.05-.1206-.15l.0151-.1807a2.88,2.88,0,0,0,.0151-.3315,1.85,1.85,0,0,0-.5649-1.4082,2.1543,2.1543,0,0,0-1.544-.5347,2.6721,2.6721,0,0,0-1.8149.6475,2.6116,2.6116,0,0,0-.8811,1.7021l-.512,4.2173a2.7931,2.7931,0,0,0-.0151.3316,1.9147,1.9147,0,0,0,.5874,1.4682,2.22,2.22,0,0,0,1.5815.55,2.6466,2.6466,0,0,0,1.7774-.6025,2.4048,2.4048,0,0,0,.8284-1.6113l.1657-1.3707a.0275.0275,0,0,0,0-.0375.0513.0513,0,0,0-.0454-.023h-2.1538a.1217.1217,0,0,1-.0979-.0449.1127.1127,0,0,1-.0224-.1055l.0751-.6328a.16.16,0,0,1,.1658-.15h3.1028a.1224.1224,0,0,1,.0979.0449.114.114,0,0,1,.0225.1055l-.241,1.9434a3.6541,3.6541,0,0,1-3.8408,3.4189A3.1272,3.1272,0,0,1,195.4922,105.9448Z" style="fill: #fff"/>
    <path id="fullLogo-27" data-name="fullLogo" d="M204.8979,106.0654a2.1178,2.1178,0,0,1-.8662-1.7846,3.2006,3.2006,0,0,1,.03-.377l.06-.4668a.16.16,0,0,1,.1655-.15h.708c.09,0,.1355.05.1355.15l-.06.4068a1.2541,1.2541,0,0,0-.0149.226,1.4759,1.4759,0,0,0,.64,1.2427,2.9476,2.9476,0,0,0,1.7846.4741,2.86,2.86,0,0,0,1.7625-.4892,1.8731,1.8731,0,0,0,.7529-1.3033,1.4159,1.4159,0,0,0-.5195-1.3178,9.1725,9.1725,0,0,0-1.8753-1.0616,14.793,14.793,0,0,1-1.5063-.7158,2.67,2.67,0,0,1-.8735-.7754,1.9261,1.9261,0,0,1-.3313-1.145c0-.07.01-.1958.03-.3764a2.7367,2.7367,0,0,1,1.092-1.9654,3.9676,3.9676,0,0,1,2.4327-.7007,3.6276,3.6276,0,0,1,2.3269.67,2.1877,2.1877,0,0,1,.8359,1.8q0,.1209-.03.3917l-.03.3315a.16.16,0,0,1-.1657.15h-.7381a.1205.1205,0,0,1-.0979-.0449.1127.1127,0,0,1-.0224-.1055l.03-.271a1.6769,1.6769,0,0,0-.58-1.5063,2.6314,2.6314,0,0,0-1.6946-.482,2.754,2.754,0,0,0-1.6343.4365,1.75,1.75,0,0,0-.7153,1.2657,1.4938,1.4938,0,0,0-.0152.2407,1.2045,1.2045,0,0,0,.2486.7681,2.2117,2.2117,0,0,0,.7155.5649q.4666.2482,1.3855.625a11.4527,11.4527,0,0,1,1.5064.7681,3.2532,3.2532,0,0,1,.9263.8588,1.9984,1.9984,0,0,1,.354,1.19,3.172,3.172,0,0,1-.0152.3613,2.8526,2.8526,0,0,1-1.1447,2.0181,4.2,4.2,0,0,1-2.6058.7534A3.8759,3.8759,0,0,1,204.8979,106.0654Z" style="fill: #fff"/>
  </g>
</svg>
