<svg id="Layer_1" data-name="Layer 1" xmlns="http://www.w3.org/2000/svg" viewBox="0 0 357.5932 72.9961">
  <g>
    <path id="fullLogo" d="M38.5112,1.1993A2.87,2.87,0,0,0,37.4625.4072,3.3548,3.3548,0,0,0,36.0739.1228H24.0386a18.2088,18.2088,0,0,0-6.46,1.1625,19.0526,19.0526,0,0,0-12.0575,14.58L2.7448,31.6069h7.3717l1.2743-7.2294H28.1321l-1.2748,7.2294h1.6194a7.1681,7.1681,0,0,0,6.7662-5.7522L39.1265,3.83a3.5154,3.5154,0,0,0-.0294-1.4383A2.9273,2.9273,0,0,0,38.5112,1.1993Zm-9.0793,15.806H12.6911l.201-1.14a10.5811,10.5811,0,0,1,1.16-3.434,9.5,9.5,0,0,1,1.8024-2.3064,8.5947,8.5947,0,0,1,2.0872-1.4292,12.4731,12.4731,0,0,1,2.1338-.8063,10.5623,10.5623,0,0,1,1.7067-.3268c.4869-.0434.8065-.0674.9561-.0674h8.37Z" style="fill: #fff"/>
    <path id="fullLogo-2" data-name="fullLogo" d="M148.41,7.1974a8.6389,8.6389,0,0,0-1.22-3.4885A7.9773,7.9773,0,0,0,144.34,1.0541,9.6881,9.6881,0,0,0,139.54,0L71.6516.0037,67.4036,24.096H54.0513a6.4923,6.4923,0,0,1-2.4873-.455,4.7547,4.7547,0,0,1-1.8386-1.3051,4.9624,4.9624,0,0,1-1.0341-2.04,6.345,6.345,0,0,1-.04-2.6852L51.7557.0037h-7.63L41.0216,17.6108a14.6579,14.6579,0,0,0-.1574,4.6368,11.44,11.44,0,0,0,1.1066,3.6236,8.9389,8.9389,0,0,0,2.0676,2.6709,12.83,12.83,0,0,0,2.6873,1.819,12.0408,12.0408,0,0,0,2.9707,1.0419,14.4134,14.4134,0,0,0,2.9511.3231H69.9027a4.1285,4.1285,0,0,0,1.5336-.294,4.77,4.77,0,0,0,2.3667-2.0244,4.5,4.5,0,0,0,.5629-1.5261l3.57-20.2476H92.1128L87.8643,31.7261h7.7178L99.8306,7.634l38.363.0056a2.7347,2.7347,0,0,1,2.1573.7548,2.7914,2.7914,0,0,1,.379,2.3559l-1.8107,10.2686a3.8528,3.8528,0,0,1-1.1718,2.2907,3.609,3.609,0,0,1-2.4544.7808H121.5881A2.6885,2.6885,0,0,1,119.41,23.31a2.7371,2.7371,0,0,1-.39-2.2907s1.7985-10.1257,1.8612-10.3338h-7.64c-.052.2211-1.8485,10.3338-1.8485,10.3338a9.9115,9.9115,0,0,0,.1863,4.9976,7.9586,7.9586,0,0,0,2.0828,3.3189,8.34,8.34,0,0,0,3.1512,1.8352,11.5135,11.5135,0,0,0,3.3639.5594h13.7824a12.9917,12.9917,0,0,0,2.3343-.2471,14.0469,14.0469,0,0,0,2.5451-.7808,13.4341,13.4341,0,0,0,2.506-1.3667,11.5762,11.5762,0,0,0,2.271-2.03,12.5635,12.5635,0,0,0,1.8009-2.7589c.0025-.0132.0177-.026.02-.0394a12.999,12.999,0,0,0,1.11-3.4878l1.8219-10.3338A11.65,11.65,0,0,0,148.41,7.1974Z" style="fill: #fff"/>
    <path id="fullLogo-3" data-name="fullLogo" d="M187.9653,20.4142h-22.703a1.81,1.81,0,0,1-1.8535-2.3406l1.6362-9.0478A1.7629,1.7629,0,0,1,166.9,7.5064l189.391-.0048L357.5932.0675,164.7675.0217a12.9191,12.9191,0,0,0-7.58,1.7314,8.5978,8.5978,0,0,0-4.0791,6.5741L151.22,19.0281a6.1558,6.1558,0,0,0,1.9159,5.9351c2.3339,1.9907,5.3925,1.9047,6.764,1.9047h22.7229a1.8589,1.8589,0,0,1,1.855,2.4433l-1.636,8.769c-.2272,1.1364-.6888,1.664-2.2991,1.664L1.3105,39.7821,0,47.2132l182.3718-.0058c1.3716,0,4.849.1957,7.6932-1.6808a7.9585,7.9585,0,0,0,3.6535-5.9193L195.59,29.0555c.2775-1.6187.348-4.524-1.4092-6.4663C192.4715,20.7,190.3033,20.4548,187.9653,20.4142Z" style="fill: #fff"/>
    <path id="fullLogo-4" data-name="fullLogo" d="M233.1156,17.9975a2.9369,2.9369,0,0,0-.586-1.1919,2.872,2.872,0,0,0-1.0486-.7921,3.3558,3.3558,0,0,0-1.3886-.2844H218.0568a18.2144,18.2144,0,0,0-6.46,1.1625,19.0542,19.0542,0,0,0-12.0573,14.58l-2.7758,15.7419h7.3712l1.2748-7.2295H222.15l-1.2747,7.2295h1.62a7.1686,7.1686,0,0,0,6.766-5.7523l3.8836-22.0252A3.5172,3.5172,0,0,0,233.1156,17.9975Zm-7.9885,5.1037-1.677,9.5105H206.7093l.201-1.14a10.58,10.58,0,0,1,1.16-3.434,9.51,9.51,0,0,1,1.802-2.3064,8.6023,8.6023,0,0,1,2.0874-1.4292,12.4774,12.4774,0,0,1,2.1338-.8061,10.5764,10.5764,0,0,1,1.7065-.327c.4873-.0435.8067-.0675.9566-.0675Z" style="fill: #fff"/>
    <path id="fullLogo-5" data-name="fullLogo" d="M276.043,15.3846c-1.12,2.2521-19.1029,20.3883-27.1723,27.3086a24.6036,24.6036,0,0,1-4.9376,3.1187,14.62,14.62,0,0,1-6.6556,1.4014,8.6826,8.6826,0,0,1-2.2943-.3415,3.0408,3.0408,0,0,1-1.0905-.8067,2.9014,2.9014,0,0,1-.6092-1.2028,3.5346,3.5346,0,0,1-.0324-1.4824l4.9363-27.9953h7.63l-4.2068,23.858c1.8581,0,25.5864-23.858,25.5864-23.858Z" style="fill: #fff"/>
    <path id="fullLogo-6" data-name="fullLogo" d="M316.321,15.3846c-1.12,2.2521-19.1029,20.3883-27.1723,27.3086a24.6036,24.6036,0,0,1-4.9376,3.1187,14.62,14.62,0,0,1-6.6556,1.4014,8.684,8.684,0,0,1-2.2944-.3415,3.0413,3.0413,0,0,1-1.09-.8067,2.9014,2.9014,0,0,1-.6092-1.2028,3.5346,3.5346,0,0,1-.0324-1.4824l4.9363-27.9953h7.63l-4.2068,23.858c1.8581,0,25.5864-23.858,25.5864-23.858Z" style="fill: #fff"/>
    <path id="fullLogo-7" data-name="fullLogo" d="M326.173,39.584c-5.3126,0-7.3448,7.6293-7.3448,7.6293h19.7662a11.9183,11.9183,0,0,0,2.3329-.2493,13.7191,13.7191,0,0,0,2.5284-.7773,14.0015,14.0015,0,0,0,2.5156-1.3649,11.6809,11.6809,0,0,0,2.264-2.0245,12.9094,12.9094,0,0,0,1.8068-2.7583,13.0641,13.0641,0,0,0,1.1229-3.5363l3.7237-21.1181h-7.63l-2.1355,12.1107H329.279a2.7112,2.7112,0,0,1-2.2081-.7923,2.7336,2.7336,0,0,1-.389-2.2882l1.5923-9.03h-7.63l-1.5923,9.03a10.0959,10.0959,0,0,0,.1749,5.0027,7.8477,7.8477,0,0,0,2.0851,3.3165,8.3032,8.3032,0,0,0,3.1542,1.834,11.3079,11.3079,0,0,0,3.4088.5574h15.903l-.2429,1.3773a3.8108,3.8108,0,0,1-1.1667,2.289,3.5524,3.5524,0,0,1-2.4286.7923H326.173" style="fill: #fff"/>
    <path id="fullLogo-8" data-name="fullLogo" d="M61.2168,72.6348l.6506-5.35a.1452.1452,0,0,0-.018-.09l-2.8015-6.7959a.2011.2011,0,0,1-.0181-.09c0-.0845.0542-.1265.1628-.1265H60.15c.1086,0,.1687.042.1809.1265l2.2773,5.5127a.0721.0721,0,0,0,.0542.0181.0734.0734,0,0,0,.0542-.0181L66.35,60.3081a.1625.1625,0,0,1,.09-.09.3156.3156,0,0,1,.1446-.0362h.94q.1085,0,.1355.063t-.0452.1538l-4.4824,6.7959a.1429.1429,0,0,0-.0181.09l-.6687,5.35a.1721.1721,0,0,1-.0544.1264.1948.1948,0,0,1-.1445.0542h-.8855Q61.1807,72.8154,61.2168,72.6348Z" style="fill: #fff"/>
    <path id="fullLogo-9" data-name="fullLogo" d="M72.2783,72.02a3.4208,3.4208,0,0,1-.9941-2.5845,4.2421,4.2421,0,0,1,.0364-.6508l.56-4.5547a4.8489,4.8489,0,0,1,.7861-2.1958,4.4182,4.4182,0,0,1,1.6538-1.4732,4.7977,4.7977,0,0,1,2.2412-.5244,3.7776,3.7776,0,0,1,2.72.958,3.4074,3.4074,0,0,1,1.0032,2.585,4.324,4.324,0,0,1-.0361.65l-.56,4.5547a5.0187,5.0187,0,0,1-.8045,2.1963,4.4252,4.4252,0,0,1-1.6538,1.4731,4.8366,4.8366,0,0,1-2.2593.5239A3.715,3.715,0,0,1,72.2783,72.02Zm5.0791-.9761a3.429,3.429,0,0,0,1.0662-2.205l.5784-4.627c.0241-.2168.0363-.373.0363-.47a2.4046,2.4046,0,0,0-2.6028-2.585,3.173,3.173,0,0,0-2.2321.8408,3.4466,3.4466,0,0,0-1.0755,2.2139l-.5783,4.627a4.7158,4.7158,0,0,0-.0362.47,2.5094,2.5094,0,0,0,.7049,1.8706,2.5831,2.5831,0,0,0,1.8977.6958A3.1849,3.1849,0,0,0,77.3574,71.0439Z" style="fill: #fff"/>
    <path id="fullLogo-10" data-name="fullLogo" d="M86.6748,72.0474a3.2505,3.2505,0,0,1-1.0032-2.5035q0-.18.0362-.6147l1.0483-8.5669a.1734.1734,0,0,1,.0542-.1265.1952.1952,0,0,1,.1445-.0542h.8858q.1626,0,.1626.1807l-1.0664,8.603a3.5707,3.5707,0,0,0-.0181.416,2.38,2.38,0,0,0,.7048,1.7984,2.6245,2.6245,0,0,0,1.898.6777,3.189,3.189,0,0,0,3.2715-2.8921l1.0664-8.603a.1731.1731,0,0,1,.0542-.1265.1952.1952,0,0,1,.1445-.0542h.8857q.1806,0,.1446.1807L94.04,68.9292a4.6294,4.6294,0,0,1-.7771,2.124,4.3357,4.3357,0,0,1-1.6357,1.419,4.9246,4.9246,0,0,1-2.25.5058A3.8147,3.8147,0,0,1,86.6748,72.0474Z" style="fill: #fff"/>
    <path id="fullLogo-11" data-name="fullLogo" d="M106.9451,72.707l-1.8977-5.603a.048.048,0,0,0-.0545-.0542h-2.9822c-.0361,0-.0664.0239-.09.0723l-.6687,5.5307a.1922.1922,0,0,1-.199.1807h-.9035a.1458.1458,0,0,1-.1177-.0542.136.136,0,0,1-.0271-.1265l1.5183-12.2905a.1852.1852,0,0,1,.1807-.1807h4.5549a2.7687,2.7687,0,0,1,2.9641,2.9458q0,.1809-.0361.5425a3.8381,3.8381,0,0,1-.9219,2.1509,3.5147,3.5147,0,0,1-1.9519,1.1387c-.0483.0239-.0605.0542-.0361.09l1.9338,5.5669.0181.0723c0,.0966-.0542.1445-.1626.1445h-.9219Q106.9629,72.8335,106.9451,72.707Zm-4.32-11.3325-.56,4.5728a.0638.0638,0,0,0,.0723.0722h3.2534a2.45,2.45,0,0,0,1.8528-.768,2.7291,2.7291,0,0,0,.7319-1.9615,1.954,1.954,0,0,0-.5422-1.4458,1.9793,1.9793,0,0,0-1.4641-.542h-3.2534C102.6794,61.3022,102.6492,61.3262,102.6252,61.3745Z" style="fill: #fff"/>
    <path id="fullLogo-12" data-name="fullLogo" d="M121.395,72.1919a2.542,2.542,0,0,1-1.0393-2.1421,3.8153,3.8153,0,0,1,.0361-.4517l.0723-.56a.1921.1921,0,0,1,.1987-.1812h.85c.1083,0,.1625.0606.1625.1812l-.0722.4878a1.4863,1.4863,0,0,0-.0181.271,1.771,1.771,0,0,0,.7681,1.4912,3.5367,3.5367,0,0,0,2.1418.5693,3.43,3.43,0,0,0,2.1148-.5874,2.2471,2.2471,0,0,0,.9038-1.5635,1.6683,1.6683,0,0,0,.018-.289,1.6256,1.6256,0,0,0-.6416-1.2925,11.0053,11.0053,0,0,0-2.25-1.2739,17.7935,17.7935,0,0,1-1.8074-.8589,3.2,3.2,0,0,1-1.0484-.9307,2.3123,2.3123,0,0,1-.3974-1.3735c0-.0845.0117-.2354.0361-.4522a3.2821,3.2821,0,0,1,1.31-2.3584,4.7624,4.7624,0,0,1,2.919-.8408,4.3535,4.3535,0,0,1,2.7924.8047,2.624,2.624,0,0,1,1.0032,2.16c0,.0967-.0122.2529-.0361.47l-.0361.3975a.1919.1919,0,0,1-.1988.1806H128.29a.1448.1448,0,0,1-.1174-.0542.1343.1343,0,0,1-.0271-.1264l.0361-.3252a1.8846,1.8846,0,0,0,.0181-.29,1.86,1.86,0,0,0-.7139-1.5181,3.1568,3.1568,0,0,0-2.0335-.5786,3.3016,3.3016,0,0,0-1.9611.5244,2.098,2.098,0,0,0-.8584,1.5181,1.811,1.811,0,0,0-.0181.29,1.4455,1.4455,0,0,0,.2981.9213,2.6527,2.6527,0,0,0,.8586.6778q.56.2988,1.6629.7505a13.719,13.719,0,0,1,1.8073.9214,3.9047,3.9047,0,0,1,1.1116,1.03,2.4,2.4,0,0,1,.4248,1.4283,3.8891,3.8891,0,0,1-.018.4335,3.4221,3.4221,0,0,1-1.3738,2.4219,5.04,5.04,0,0,1-3.1267.9038A4.6508,4.6508,0,0,1,121.395,72.1919Z" style="fill: #fff"/>
    <path id="fullLogo-13" data-name="fullLogo" d="M135.303,72.02a3.42,3.42,0,0,1-.9942-2.5845,4.2552,4.2552,0,0,1,.0364-.6508l.56-4.5547a4.8479,4.8479,0,0,1,.7862-2.1958,4.4167,4.4167,0,0,1,1.6538-1.4732,4.7977,4.7977,0,0,1,2.2412-.5244,3.7776,3.7776,0,0,1,2.72.958A3.4074,3.4074,0,0,1,143.31,63.58a4.3077,4.3077,0,0,1-.0362.65l-.56,4.5547a5.02,5.02,0,0,1-.8044,2.1963,4.426,4.426,0,0,1-1.6538,1.4731,4.8369,4.8369,0,0,1-2.2593.5239A3.715,3.715,0,0,1,135.303,72.02Zm5.0791-.9761a3.4289,3.4289,0,0,0,1.0661-2.205l.5784-4.627c.0242-.2168.0364-.373.0364-.47a2.4047,2.4047,0,0,0-2.6028-2.585,3.1734,3.1734,0,0,0-2.2322.8408,3.447,3.447,0,0,0-1.0754,2.2139l-.5784,4.627c-.0244.2173-.0361.374-.0361.47a2.5093,2.5093,0,0,0,.7048,1.8706,2.5835,2.5835,0,0,0,1.8977.6958A3.1851,3.1851,0,0,0,140.3821,71.0439Z" style="fill: #fff"/>
    <path id="fullLogo-14" data-name="fullLogo" d="M149.7,72.0474a3.2505,3.2505,0,0,1-1.0032-2.5035q0-.18.0361-.6147l1.0484-8.5669a.1731.1731,0,0,1,.0542-.1265.1952.1952,0,0,1,.1445-.0542h.8857q.1626,0,.1626.1807l-1.0664,8.603a3.5751,3.5751,0,0,0-.018.416,2.38,2.38,0,0,0,.7048,1.7984,2.6242,2.6242,0,0,0,1.8979.6777,3.189,3.189,0,0,0,3.2715-2.8921l1.0664-8.603a.1734.1734,0,0,1,.0542-.1265.1956.1956,0,0,1,.1446-.0542h.8857q.1806,0,.1445.1807l-1.0483,8.5669a4.6317,4.6317,0,0,1-.7771,2.124,4.3357,4.3357,0,0,1-1.6357,1.419,4.9251,4.9251,0,0,1-2.25.5058A3.8146,3.8146,0,0,1,149.7,72.0474Z" style="fill: #fff"/>
    <path id="fullLogo-15" data-name="fullLogo" d="M169.97,72.707l-1.8977-5.603a.048.048,0,0,0-.0544-.0542h-2.9822c-.0361,0-.0664.0239-.09.0723l-.6687,5.5307a.1922.1922,0,0,1-.199.1807h-.9036a.1458.1458,0,0,1-.1176-.0542.1357.1357,0,0,1-.0271-.1265l1.5183-12.2905a.1852.1852,0,0,1,.1806-.1807h4.555a2.7687,2.7687,0,0,1,2.9641,2.9458q0,.1809-.0362.5425a3.8379,3.8379,0,0,1-.9218,2.1509,3.5147,3.5147,0,0,1-1.9519,1.1387c-.0484.0239-.0606.0542-.0362.09l1.9339,5.5669.018.0723c0,.0966-.0542.1445-.1626.1445h-.9218Q169.9876,72.8335,169.97,72.707Zm-4.32-11.3325-.56,4.5728a.0637.0637,0,0,0,.0723.0722h3.2534a2.45,2.45,0,0,0,1.8528-.768A2.7291,2.7291,0,0,0,171,63.29a1.9544,1.9544,0,0,0-.5422-1.4458,1.9793,1.9793,0,0,0-1.4641-.542H165.74C165.7041,61.3022,165.6738,61.3262,165.65,61.3745Z" style="fill: #fff"/>
    <path id="fullLogo-16" data-name="fullLogo" d="M178.04,72.0742a3.2275,3.2275,0,0,1-.9851-2.4761,3.9333,3.9333,0,0,1,.0364-.6142l.5964-4.9707a4.5238,4.5238,0,0,1,.7771-2.0786,4.3021,4.3021,0,0,1,1.6267-1.4009,4.864,4.864,0,0,1,2.2051-.4971,3.8544,3.8544,0,0,1,2.6931.9038,3.1133,3.1133,0,0,1,.9941,2.4219q0,.1809-.0361.5786c-.0244.1328-.0906.1987-.199.1987l-.9035.0542a.1438.1438,0,0,1-.1629-.1626l.0181-.0541a3.6011,3.6011,0,0,0,.0181-.4156,2.317,2.317,0,0,0-.6778-1.7534,2.59,2.59,0,0,0-1.8706-.6509,3.2062,3.2062,0,0,0-2.178.7774,3.1329,3.1329,0,0,0-1.0573,2.0425l-.6145,5.061a3.5539,3.5539,0,0,0-.0181.4155,2.3011,2.3011,0,0,0,.6868,1.7534,2.5959,2.5959,0,0,0,1.8615.65,3.1954,3.1954,0,0,0,2.1871-.7773,3.0762,3.0762,0,0,0,1.03-2.042l.0181-.0361q0-.1633.1809-.1631l.8855.0542q.1989,0,.1626.1631a4.5237,4.5237,0,0,1-.7681,2.0693,4.1926,4.1926,0,0,1-1.6176,1.3828,4.98,4.98,0,0,1-2.2232.4878A3.7444,3.7444,0,0,1,178.04,72.0742Z" style="fill: #fff"/>
    <path id="fullLogo-17" data-name="fullLogo" d="M200.0813,61.3022h-6.4526c-.0362,0-.0664.024-.09.0723l-.5422,4.4644a.0637.0637,0,0,0,.0723.0722h4.5185q.1806,0,.1448.1807l-.09.7593a.1922.1922,0,0,1-.199.1806h-4.5186a.0638.0638,0,0,0-.0722.0723l-.56,4.5366c0,.0484.018.0723.0542.0723h6.4526c.1084,0,.1626.06.1626.1807l-.1084.7592a.1731.1731,0,0,1-.0542.1265.1959.1959,0,0,1-.1448.0542h-7.591a.1458.1458,0,0,1-.1177-.0542.136.136,0,0,1-.0271-.1265l1.5183-12.2905a.1852.1852,0,0,1,.1807-.1807h7.5913a.1663.1663,0,0,1,.1355.0542.137.137,0,0,1,.0273.1265l-.0906.7588A.1921.1921,0,0,1,200.0813,61.3022Z" style="fill: #fff"/>
    <path id="fullLogo-18" data-name="fullLogo" d="M220.6858,61.3022h-6.4346c-.0361,0-.0664.024-.09.0723l-.5422,4.4644a.0637.0637,0,0,0,.0722.0722h4.5q.1806,0,.1448.1807l-.09.7593a.1921.1921,0,0,1-.1989.1806h-4.5a.0638.0638,0,0,0-.0723.0723l-.6867,5.5488a.1923.1923,0,0,1-.199.1807h-.9036a.1461.1461,0,0,1-.1177-.0542.1362.1362,0,0,1-.0271-.1265l1.5183-12.2905a.1852.1852,0,0,1,.1807-.1807h7.5733a.1663.1663,0,0,1,.1355.0542.137.137,0,0,1,.0273.1265l-.0906.7588A.1921.1921,0,0,1,220.6858,61.3022Z" style="fill: #fff"/>
    <path id="fullLogo-19" data-name="fullLogo" d="M225.7285,72.02a3.4208,3.4208,0,0,1-.9941-2.5845,4.2421,4.2421,0,0,1,.0364-.6508l.56-4.5547a4.8478,4.8478,0,0,1,.7861-2.1958,4.4174,4.4174,0,0,1,1.6538-1.4732,4.7977,4.7977,0,0,1,2.2412-.5244,3.7776,3.7776,0,0,1,2.72.958,3.4074,3.4074,0,0,1,1.0032,2.585,4.324,4.324,0,0,1-.0361.65l-.56,4.5547a5.0187,5.0187,0,0,1-.8045,2.1963,4.4252,4.4252,0,0,1-1.6538,1.4731,4.8366,4.8366,0,0,1-2.2593.5239A3.715,3.715,0,0,1,225.7285,72.02Zm5.0791-.9761a3.429,3.429,0,0,0,1.0662-2.205l.5783-4.627c.0242-.2168.0364-.373.0364-.47a2.4046,2.4046,0,0,0-2.6028-2.585,3.173,3.173,0,0,0-2.2321.8408,3.4466,3.4466,0,0,0-1.0755,2.2139L226,68.8389a4.7158,4.7158,0,0,0-.0362.47,2.5094,2.5094,0,0,0,.7049,1.8706,2.5831,2.5831,0,0,0,1.8977.6958A3.1849,3.1849,0,0,0,230.8076,71.0439Z" style="fill: #fff"/>
    <path id="fullLogo-20" data-name="fullLogo" d="M245.7729,72.707l-1.8977-5.603a.048.048,0,0,0-.0544-.0542h-2.9822c-.0361,0-.0664.0239-.09.0723l-.6687,5.5307a.1922.1922,0,0,1-.199.1807h-.9035a.1458.1458,0,0,1-.1177-.0542.1357.1357,0,0,1-.0271-.1265l1.5183-12.2905a.1852.1852,0,0,1,.1806-.1807h4.555a2.7687,2.7687,0,0,1,2.9641,2.9458q0,.1809-.0361.5425a3.8381,3.8381,0,0,1-.9219,2.1509A3.5147,3.5147,0,0,1,245.14,66.96c-.0484.0239-.0606.0542-.0362.09l1.9339,5.5669.0181.0723c0,.0966-.0542.1445-.1626.1445h-.9219Q245.7908,72.8335,245.7729,72.707Zm-4.32-11.3325-.56,4.5728a.0637.0637,0,0,0,.0723.0722h3.2534a2.45,2.45,0,0,0,1.8528-.768,2.7291,2.7291,0,0,0,.7319-1.9615,1.954,1.954,0,0,0-.5422-1.4458,1.9793,1.9793,0,0,0-1.4641-.542h-3.2534C241.5073,61.3022,241.4771,61.3262,241.4531,61.3745Z" style="fill: #fff"/>
    <path id="fullLogo-21" data-name="fullLogo" d="M260.2229,72.1919a2.542,2.542,0,0,1-1.0393-2.1421,3.8153,3.8153,0,0,1,.0361-.4517l.0723-.56a.1921.1921,0,0,1,.1987-.1812h.85c.1084,0,.1626.0606.1626.1812l-.0722.4878a1.4863,1.4863,0,0,0-.0181.271,1.771,1.771,0,0,0,.7681,1.4912,3.5365,3.5365,0,0,0,2.1418.5693,3.43,3.43,0,0,0,2.1148-.5874,2.2471,2.2471,0,0,0,.9038-1.5635,1.6683,1.6683,0,0,0,.018-.289,1.6256,1.6256,0,0,0-.6416-1.2925,11.0039,11.0039,0,0,0-2.25-1.2739,17.8006,17.8006,0,0,1-1.8073-.8589,3.2,3.2,0,0,1-1.0484-.9307,2.3123,2.3123,0,0,1-.3974-1.3735c0-.0845.0117-.2354.0361-.4522a3.2821,3.2821,0,0,1,1.31-2.3584,4.762,4.762,0,0,1,2.9189-.8408,4.3536,4.3536,0,0,1,2.7925.8047,2.624,2.624,0,0,1,1.0032,2.16c0,.0967-.0122.2529-.0361.47l-.0362.3975a.1917.1917,0,0,1-.1987.1806h-.8857a.1452.1452,0,0,1-.1175-.0542.1348.1348,0,0,1-.0271-.1264l.0362-.3252a1.8866,1.8866,0,0,0,.018-.29,1.86,1.86,0,0,0-.7138-1.5181,3.157,3.157,0,0,0-2.0335-.5786,3.302,3.302,0,0,0-1.9612.5244,2.0986,2.0986,0,0,0-.8584,1.5181,1.8247,1.8247,0,0,0-.018.29,1.445,1.445,0,0,0,.2981.9213,2.6516,2.6516,0,0,0,.8586.6778q.56.2988,1.6629.7505a13.719,13.719,0,0,1,1.8073.9214,3.9047,3.9047,0,0,1,1.1116,1.03,2.4,2.4,0,0,1,.4248,1.4283,3.8592,3.8592,0,0,1-.0181.4335,3.4216,3.4216,0,0,1-1.3737,2.4219,5.04,5.04,0,0,1-3.1268.9038A4.6507,4.6507,0,0,1,260.2229,72.1919Z" style="fill: #fff"/>
    <path id="fullLogo-22" data-name="fullLogo" d="M280.15,72.689l-.4339-2.2774a.0479.0479,0,0,0-.0542-.0542H274.42a.0706.0706,0,0,0-.0723.0542l-.9941,2.2774a.2106.2106,0,0,1-.2171.1445h-.9577c-.1329,0-.169-.0659-.1084-.1987l5.3859-12.3086a.161.161,0,0,1,.09-.1084.2878.2878,0,0,1,.1267-.0362h1.1929a.22.22,0,0,1,.1264.0362.1739.1739,0,0,1,.0723.1084l2.386,12.3086v.0361a.1439.1439,0,0,1-.1629.1626h-.9577A.1706.1706,0,0,1,280.15,72.689Zm-5.3138-3.4073a.06.06,0,0,0,.0542.0274h4.5367a.0774.0774,0,0,0,.0632-.0362c.0181-.0239.021-.0419.009-.0541l-1.3735-7.3746c-.0122-.0239-.0274-.0361-.0454-.0361a.1.1,0,0,0-.0633.0361l-3.1809,7.3746A.0584.0584,0,0,0,274.8359,69.2817Z" style="fill: #fff"/>
    <path id="fullLogo-23" data-name="fullLogo" d="M288.9883,72.7974a.1743.1743,0,0,1-.0725-.1084L286.6023,60.38v-.0362a.1438.1438,0,0,1,.1628-.1626h.9578a.1931.1931,0,0,1,.1086.0362.1747.1747,0,0,1,.0723.1084l1.8977,10.5913c0,.0244.0149.0361.0452.0361a.0642.0642,0,0,0,.0632-.0361l4.4824-10.5913a.2689.2689,0,0,1,.2351-.1446h.9219c.12,0,.1626.066.1265.1988L290.3076,72.689a.2693.2693,0,0,1-.2348.1445h-.9581A.22.22,0,0,1,288.9883,72.7974Z" style="fill: #fff"/>
    <path id="fullLogo-24" data-name="fullLogo" d="M299.7153,72.7793a.1362.1362,0,0,1-.0271-.1265l1.5183-12.2905a.1852.1852,0,0,1,.1807-.1807h.9038q.1806,0,.1445.1807l-1.5,12.2905a.1922.1922,0,0,1-.1989.1807h-.9036A.1461.1461,0,0,1,299.7153,72.7793Z" style="fill: #fff"/>
    <path id="fullLogo-25" data-name="fullLogo" d="M316.4976,60.1816h.8855a.167.167,0,0,1,.1357.0542.1374.1374,0,0,1,.0271.1265l-1.5183,12.2905a.1731.1731,0,0,1-.0542.1265.1957.1957,0,0,1-.1445.0542h-.8677a.25.25,0,0,1-.1987-.1265l-4.7356-10.0312c-.0123-.0362-.03-.0513-.0542-.0454s-.0362.0273-.0362.0634l-1.2109,9.959a.1922.1922,0,0,1-.199.1807h-.9036a.1458.1458,0,0,1-.1176-.0542.1357.1357,0,0,1-.0271-.1265l1.5183-12.2905a.1852.1852,0,0,1,.1806-.1807h.8858a.25.25,0,0,1,.1987.1265l4.7356,10.0313c.012.0361.03.0512.0542.0449s.0361-.0269.0361-.063l1.211-9.959A.1921.1921,0,0,1,316.4976,60.1816Z" style="fill: #fff"/>
    <path id="fullLogo-26" data-name="fullLogo" d="M323.6006,72.0474a3.22,3.22,0,0,1-.9942-2.4673q0-.18.0362-.5781l.6147-4.9888a4.5238,4.5238,0,0,1,.7771-2.0786,4.3029,4.3029,0,0,1,1.6267-1.4009,4.864,4.864,0,0,1,2.2051-.4971,3.8027,3.8027,0,0,1,2.6751.9131,3.0981,3.0981,0,0,1,.9941,2.3945c0,.1084-.0122.2837-.0361.5245l-.0181.2348a.1922.1922,0,0,1-.199.1807h-.9035q-.1809,0-.1448-.1807l.0181-.2168a3.42,3.42,0,0,0,.018-.3974,2.2212,2.2212,0,0,0-.6777-1.69,2.5882,2.5882,0,0,0-1.8526-.6416,3.2058,3.2058,0,0,0-2.1779.7774,3.1325,3.1325,0,0,0-1.0574,2.0425l-.6145,5.061a3.35,3.35,0,0,0-.0181.3974,2.299,2.299,0,0,0,.7049,1.7623,2.665,2.665,0,0,0,1.8977.66,3.1743,3.1743,0,0,0,2.1328-.7231,2.8855,2.8855,0,0,0,.9941-1.9336l.1987-1.645c.012-.0118.012-.0269,0-.045a.0608.0608,0,0,0-.0542-.0273h-2.5844a.1458.1458,0,0,1-.1177-.0542.136.136,0,0,1-.0271-.1265l.0906-.7592a.192.192,0,0,1,.1987-.1807h3.7234a.1463.1463,0,0,1,.1174.0542.136.136,0,0,1,.0271.1265l-.2893,2.3315a4.3843,4.3843,0,0,1-4.6089,4.103A3.7557,3.7557,0,0,1,323.6006,72.0474Z" style="fill: #fff"/>
    <path id="fullLogo-27" data-name="fullLogo" d="M337.2375,72.1919a2.542,2.542,0,0,1-1.0393-2.1421,3.82,3.82,0,0,1,.0362-.4517l.0722-.56a.1923.1923,0,0,1,.1988-.1812h.85c.1084,0,.1626.0606.1626.1812l-.0723.4878a1.4863,1.4863,0,0,0-.0181.271,1.771,1.771,0,0,0,.7681,1.4912,3.5368,3.5368,0,0,0,2.1419.5693,3.43,3.43,0,0,0,2.1147-.5874,2.2467,2.2467,0,0,0,.9038-1.5635,1.6658,1.6658,0,0,0,.0181-.289,1.6256,1.6256,0,0,0-.6416-1.2925,11.01,11.01,0,0,0-2.25-1.2739,17.8039,17.8039,0,0,1-1.8074-.8589,3.2,3.2,0,0,1-1.0483-.9307,2.3117,2.3117,0,0,1-.3975-1.3735c0-.0845.0117-.2354.0361-.4522a3.2825,3.2825,0,0,1,1.31-2.3584,4.7618,4.7618,0,0,1,2.9189-.8408,4.3536,4.3536,0,0,1,2.7925.8047,2.6243,2.6243,0,0,1,1.0032,2.16c0,.0967-.0123.2529-.0362.47l-.0361.3975a.1918.1918,0,0,1-.1987.1806h-.8858a.1451.1451,0,0,1-.1174-.0542.1345.1345,0,0,1-.0271-.1264l.0361-.3252a1.8846,1.8846,0,0,0,.0181-.29,1.86,1.86,0,0,0-.7139-1.5181,3.1565,3.1565,0,0,0-2.0334-.5786,3.3018,3.3018,0,0,0-1.9612.5244,2.098,2.098,0,0,0-.8584,1.5181,1.8229,1.8229,0,0,0-.0181.29,1.4455,1.4455,0,0,0,.2981.9213,2.6531,2.6531,0,0,0,.8587.6778q.56.2988,1.6628.7505a13.7147,13.7147,0,0,1,1.8074.9214,3.9056,3.9056,0,0,1,1.1115,1.03,2.4,2.4,0,0,1,.4248,1.4283,3.8891,3.8891,0,0,1-.018.4335,3.4217,3.4217,0,0,1-1.3738,2.4219,5.04,5.04,0,0,1-3.1267.9038A4.651,4.651,0,0,1,337.2375,72.1919Z" style="fill: #fff"/>
  </g>
</svg>
